<svg width="58" height="58" viewBox="0 0 58 58" fill="none" xmlns="http://www.w3.org/2000/svg">
<path d="M18.1508 29.525C17.5674 27.5417 16.0508 26.0833 14.1258 25.5C13.7758 25.3833 13.7758 24.975 14.1258 24.9167C16.1091 24.3333 17.5674 22.8167 18.1508 20.8917C18.2674 20.5417 18.6758 20.5417 18.7341 20.8917C19.3174 22.875 20.8341 24.3333 22.7591 24.9167C23.1091 25.0333 23.1091 25.4417 22.7591 25.5C20.8341 26.0833 19.3758 27.6 18.7341 29.525C18.6758 29.875 18.2091 29.875 18.1508 29.525Z" stroke="white" stroke-width="1.93" stroke-miterlimit="10"/>
<path d="M43.7563 26.4333C43.1729 24.45 41.6562 22.9917 39.7313 22.4083C39.3812 22.2917 39.3812 21.8833 39.7313 21.825C41.7146 21.2417 43.1729 19.725 43.7563 17.8C43.8729 17.45 44.2813 17.45 44.3396 17.8C44.9229 19.7833 46.4396 21.2417 48.3646 21.825C48.7146 21.9417 48.7146 22.35 48.3646 22.4083C46.4396 22.9917 44.9813 24.5083 44.3396 26.4333C44.2813 26.7833 43.8146 26.7833 43.7563 26.4333Z" stroke="white" stroke-width="1.93" stroke-miterlimit="10"/>
<path d="M19.9008 49.3C19.3174 47.3167 17.8008 45.8583 15.8758 45.275C15.5258 45.1583 15.5258 44.75 15.8758 44.6917C17.8591 44.1083 19.3174 42.5917 19.9008 40.6667C20.0174 40.3167 20.4258 40.3167 20.4841 40.6667C21.0674 42.65 22.5841 44.1083 24.5091 44.6917C24.8591 44.8083 24.8591 45.2167 24.5091 45.275C22.5841 45.8583 21.1258 47.375 20.4841 49.3C20.4258 49.65 19.9591 49.65 19.9008 49.3Z" stroke="white" stroke-width="1.93" stroke-miterlimit="10"/>
<path d="M29 57C44.464 57 57 44.464 57 29C57 13.536 44.464 1 29 1C13.536 1 1 13.536 1 29C1 44.464 13.536 57 29 57Z" stroke="white" stroke-width="1.93" stroke-miterlimit="10"/>
<path d="M32.5013 38.6833C33.79 38.6833 34.8346 37.6387 34.8346 36.35C34.8346 35.0613 33.79 34.0167 32.5013 34.0167C31.2126 34.0167 30.168 35.0613 30.168 36.35C30.168 37.6387 31.2126 38.6833 32.5013 38.6833Z" stroke="white" stroke-width="1.93" stroke-miterlimit="10"/>
<path d="M29.2904 14.3C30.579 14.3 31.6237 13.2553 31.6237 11.9667C31.6237 10.678 30.579 9.63333 29.2904 9.63333C28.0017 9.63333 26.957 10.678 26.957 11.9667C26.957 13.2553 28.0017 14.3 29.2904 14.3Z" stroke="white" stroke-width="1.93" stroke-miterlimit="10"/>
<path d="M30.457 13.25L42.0654 20.7167" stroke="white" stroke-width="1.93" stroke-miterlimit="10"/>
<path d="M27.7763 13.6583L20.543 23.5167" stroke="white" stroke-width="1.93" stroke-miterlimit="10"/>
<path d="M20.3086 26.9583L30.8086 34.775" stroke="white" stroke-width="1.93" stroke-miterlimit="10"/>
<path d="M30.4589 37.5167L22.1172 43.175" stroke="white" stroke-width="1.93" stroke-miterlimit="10"/>
</svg>
