<svg width="15" height="15" viewBox="0 0 15 15" fill="none" xmlns="http://www.w3.org/2000/svg">
<g clip-path="url(#clip0_239_4261)">
<path d="M7.63279 14.7794L7.63271 14.7797L7.6382 14.7805C7.65685 14.7831 7.67525 14.7858 7.69345 14.7885C7.81827 14.8066 7.9333 14.8234 8.0483 14.8234C8.33239 14.8234 8.59455 14.7577 8.85551 14.6272L8.85552 14.6272L8.85655 14.6267L13.1828 12.3363C13.183 12.3362 13.1831 12.3361 13.1833 12.336C13.5875 12.1336 13.7676 11.6829 13.6104 11.2561L13.6104 11.2561L13.6099 11.2548C13.4308 10.8071 12.9375 10.5596 12.4658 10.7169L12.4658 10.7169L12.4647 10.7173L9.3465 11.8415L9.34649 11.8415L9.34489 11.8421C9.21653 11.8935 9.13579 12.048 9.18976 12.1829C9.24099 12.311 9.39494 12.3916 9.52966 12.3383L12.6458 11.2149C12.8335 11.1592 13.0392 11.2535 13.114 11.4405C13.1522 11.5359 13.1512 11.6234 13.1219 11.6979C13.0924 11.7727 13.0326 11.8386 12.9458 11.887L8.5979 14.1563L8.59789 14.1563L8.59733 14.1566C8.33427 14.2983 8.05018 14.3195 7.76277 14.258L5.02813 13.5585C5.028 13.5585 5.02787 13.5584 5.02774 13.5584C4.5515 13.4286 4.05422 13.4503 3.62182 13.5801L3.62181 13.58L3.62037 13.5805C3.47105 13.6303 3.38696 13.784 3.44073 13.9209C3.49087 14.069 3.6435 14.1524 3.77969 14.0995C4.13187 13.9963 4.5248 13.976 4.9174 14.0793L4.91764 14.0794L7.63279 14.7794Z" fill="white" stroke="white" stroke-width="0.1"/>
<path d="M9.38378 12.4687V12.4687L6.86037 12.4263C6.86023 12.4263 6.86008 12.4263 6.85993 12.4263L6.85953 12.4263L6.86037 12.3763C6.7331 12.3763 6.64825 12.2702 6.64825 12.1642C6.64825 12.0581 6.75431 11.9521 6.86037 11.9521L9.38378 12.4687ZM9.38378 12.4687H9.38462C9.42227 12.4687 9.45588 12.4624 9.48712 12.4485C9.51814 12.4347 9.54429 12.4146 9.56846 12.3904C9.59262 12.3663 9.61273 12.3401 9.62652 12.3091C9.6404 12.2779 9.64674 12.2443 9.64674 12.2066C9.64674 11.9682 9.60357 11.7711 9.53745 11.6161C9.31792 10.9603 8.70575 10.5239 8.02865 10.5021V10.5021L8.02795 10.5021L6.8629 10.4809C6.60381 10.4595 6.30239 10.4811 6.00079 10.5669L3.64891 10.9694L3.64891 10.9694L3.64754 10.9697C3.57856 10.9835 3.52049 11.0305 3.48317 11.0864C3.44584 11.1424 3.42482 11.2141 3.43862 11.2831C3.45241 11.3521 3.49938 11.4101 3.55537 11.4474C3.61114 11.4846 3.68249 11.5056 3.75123 11.4921L6.12631 11.0892L6.12638 11.0897L6.13265 11.0877C6.4028 11.0046 6.62943 10.9844 6.83419 11.0048L6.83417 11.005L6.83825 11.0051L8.00428 11.0263C8.47101 11.0468 8.87771 11.3513 9.04066 11.7994L9.03928 11.7999L9.04604 11.8101C9.06264 11.835 9.07147 11.8604 9.0787 11.8917C9.08185 11.9054 9.08455 11.9194 9.08758 11.9352C9.08809 11.9379 9.08861 11.9406 9.08914 11.9433L9.38378 12.4687Z" fill="white" stroke="white" stroke-width="0.1"/>
<path d="M10.7957 9.9011L10.7956 9.90123L10.7993 9.90168L10.8008 9.90188C10.9695 9.92296 11.1418 9.94449 11.3146 9.94449C11.4886 9.94449 11.641 9.9227 11.8135 9.87964C11.9408 9.85349 12.0487 9.7254 12.0212 9.58772L12.0212 9.58772L12.021 9.58668C11.9929 9.46025 12.016 9.39009 12.0343 9.35766C12.0474 9.36292 12.0645 9.3711 12.084 9.38299C12.1265 9.40897 12.1796 9.45223 12.2284 9.52053L12.2284 9.52053L12.2291 9.52146C12.2677 9.57295 12.3251 9.61121 12.3863 9.62732C12.447 9.64329 12.5156 9.63824 12.5724 9.59692C12.834 9.44375 13.0715 9.20511 13.2858 8.88392C13.3657 8.77591 13.3379 8.61842 13.2325 8.53934L13.2325 8.53933L13.2315 8.53866C13.1606 8.48797 13.112 8.43873 13.0842 8.39937C13.0702 8.37957 13.0627 8.3639 13.0594 8.3531C13.0583 8.34952 13.0579 8.34704 13.0577 8.34549C13.0594 8.34365 13.0629 8.34048 13.0693 8.33652C13.0797 8.33007 13.0955 8.32315 13.1171 8.31747C13.1599 8.30621 13.2217 8.30088 13.3006 8.31057C13.438 8.3368 13.5654 8.22854 13.5909 8.10127L13.591 8.10068C13.6557 7.7554 13.6558 7.40954 13.5909 7.08469C13.5653 6.95682 13.4368 6.84814 13.2987 6.87577L13.2987 6.87576L13.2977 6.87599C13.1712 6.90408 13.1011 6.88093 13.0686 6.86269C13.0739 6.84952 13.0821 6.83245 13.094 6.81299C13.12 6.77048 13.1632 6.7173 13.2315 6.66851L13.2315 6.66853L13.2325 6.66783C13.2839 6.62921 13.3222 6.57185 13.3383 6.51063C13.3543 6.44992 13.3492 6.38138 13.3079 6.32454C13.1546 6.06268 12.9156 5.82496 12.5938 5.61047L12.5939 5.61042L12.5918 5.6092C12.4599 5.53006 12.3053 5.58417 12.2291 5.68571L12.2284 5.68664C12.1785 5.75662 12.1303 5.79893 12.0926 5.82109C12.0737 5.83221 12.0586 5.83759 12.0481 5.83958C12.0421 5.84071 12.0386 5.84059 12.0371 5.84043L12.0372 5.84023L12.0304 5.83797C12.0238 5.83578 12.0091 5.8262 11.9999 5.7823C11.991 5.74004 11.9902 5.67796 12.0003 5.59631C12.0266 5.45892 11.9183 5.33153 11.791 5.30607L11.791 5.30607L11.7905 5.30596C11.4452 5.24122 11.0993 5.2411 10.7745 5.30607C10.6466 5.33164 10.5379 5.46012 10.5655 5.59824L10.5655 5.59824L10.5658 5.59928C10.5939 5.72571 10.5707 5.79587 10.5525 5.8283C10.5393 5.82304 10.5222 5.81486 10.5028 5.80297C10.4603 5.77699 10.4071 5.73373 10.3583 5.66543L10.3583 5.66542L10.3576 5.66449C10.319 5.613 10.2616 5.57475 10.2004 5.55864C10.1397 5.54267 10.0712 5.54772 10.0143 5.58904C9.75246 5.74238 9.51474 5.98138 9.30024 6.30312L9.3002 6.30309L9.29897 6.30513C9.21984 6.43702 9.27394 6.59167 9.37548 6.66783L9.37547 6.66784L9.37642 6.66851C9.44639 6.71849 9.4887 6.76663 9.51087 6.80431C9.52198 6.82321 9.52737 6.83833 9.52936 6.84889C9.53048 6.85483 9.53037 6.85831 9.5302 6.85988L9.53 6.85979L9.52774 6.86656C9.52556 6.87312 9.51598 6.88784 9.47207 6.89708C9.42982 6.90598 9.36774 6.9067 9.28609 6.8966C9.1487 6.87036 9.0213 6.97863 8.99584 7.1059L8.99573 7.10649C8.93099 7.45177 8.93088 7.79763 8.99585 8.12248C9.02142 8.25035 9.14989 8.35903 9.28801 8.3314L9.28802 8.33141L9.28906 8.33118C9.41549 8.30309 9.48564 8.32624 9.51808 8.34447C9.51281 8.35764 9.50464 8.37471 9.49274 8.39418C9.46677 8.43669 9.42351 8.48987 9.35521 8.53866L9.3552 8.53865L9.35427 8.53934C9.30278 8.57796 9.26453 8.63532 9.24842 8.69654C9.23244 8.75725 9.2375 8.82579 9.27881 8.88263C9.43215 9.14449 9.67116 9.38221 9.9929 9.5967L9.99287 9.59675L9.99491 9.59798C10.1268 9.67711 10.2814 9.623 10.3576 9.52146L10.3583 9.52053C10.4083 9.45055 10.4564 9.40824 10.4941 9.38608C10.513 9.37496 10.5281 9.36958 10.5387 9.36759C10.5446 9.36646 10.5481 9.36658 10.5497 9.36674L10.5496 9.36694L10.5563 9.3692C10.5629 9.37139 10.5776 9.38097 10.5869 9.42487C10.5958 9.46713 10.5965 9.5292 10.5864 9.61085C10.5601 9.74824 10.6684 9.87564 10.7957 9.9011ZM2.40548 14.6112H3.69942C3.77442 14.6112 3.8408 14.5859 3.88856 14.5382C3.93632 14.4904 3.96154 14.424 3.96154 14.349V10.7218C3.96154 10.6468 3.93632 10.5804 3.88856 10.5326C3.8408 10.4849 3.77442 10.4596 3.69942 10.4596H2.40548C2.33048 10.4596 2.2641 10.4849 2.21634 10.5326C2.16858 10.5804 2.14336 10.6468 2.14336 10.7218V14.349C2.14336 14.424 2.16858 14.4904 2.21634 14.5382C2.2641 14.5859 2.33048 14.6112 2.40548 14.6112ZM3.4373 10.9839V14.0869H2.6676V10.9839H3.4373ZM11.8458 8.87305C11.6451 8.96224 11.513 9.1748 11.4991 9.42607C11.3789 9.43963 11.2472 9.43952 11.1272 9.42575C11.0964 9.16149 10.9671 8.9412 10.7567 8.89205C10.5356 8.80536 10.2982 8.86627 10.1035 9.04249C10.0066 8.95915 9.92347 8.87624 9.85394 8.79381C10.0313 8.59621 10.0931 8.33815 10.0027 8.13479C9.9135 7.93412 9.70093 7.80204 9.44966 7.78814C9.43611 7.66793 9.43621 7.53635 9.44997 7.41631C9.71632 7.38699 9.9135 7.27422 10.0034 7.04943C10.0923 6.82732 10.0317 6.58828 9.85445 6.39254C9.93829 6.29502 10.0217 6.21149 10.1046 6.1417C10.3169 6.31862 10.5568 6.38297 10.7622 6.2917C10.9628 6.20251 11.0949 5.98994 11.1088 5.73867C11.229 5.72512 11.3606 5.72523 11.4806 5.73898C11.51 6.00534 11.6227 6.20252 11.8475 6.29243C12.0696 6.38128 12.3087 6.32068 12.5044 6.14347C12.6019 6.2273 12.6855 6.31071 12.7552 6.39363C12.5783 6.60596 12.514 6.84582 12.6052 7.05116C12.6944 7.25186 12.907 7.38394 13.1583 7.39783C13.172 7.51619 13.1717 7.63627 13.1574 7.77004C12.9104 7.79979 12.6949 7.91163 12.6049 8.13566C12.5148 8.33934 12.5774 8.5777 12.7535 8.7722C12.6696 8.86973 12.5862 8.95326 12.5033 9.02304C12.291 8.84613 12.0511 8.78178 11.8458 8.87305Z" fill="white" stroke="white" stroke-width="0.1"/>
<path d="M11.2931 8.77787L11.2948 8.77781C11.9365 8.75568 12.4461 8.22486 12.4461 7.6036C12.4461 6.96021 11.9352 6.45057 11.2719 6.45054L11.2702 6.4506C10.6285 6.47272 10.1188 7.00355 10.1188 7.62481L10.1189 7.62653C10.141 8.26823 10.6718 8.77784 11.2931 8.77787ZM11.2916 8.25359C10.9603 8.25273 10.6636 7.95816 10.6431 7.62335C10.644 7.292 10.9385 6.99532 11.2733 6.97481C11.649 6.97553 11.9219 7.25086 11.9219 7.6036C11.9219 7.93553 11.6269 8.23305 11.2916 8.25359ZM2.12187 7.6036C2.12187 8.92515 3.18365 9.98693 4.50521 9.98693C5.82676 9.98693 6.88854 8.92515 6.88854 7.6036C6.88854 6.28204 5.82676 5.22026 4.50521 5.22026C3.18365 5.22026 2.12187 6.28204 2.12187 7.6036ZM2.64612 7.6036C2.64612 6.57061 3.47222 5.74451 4.50521 5.74451C5.5382 5.74451 6.3643 6.57061 6.3643 7.6036C6.3643 8.63659 5.5382 9.46269 4.50521 9.46269C3.47222 9.46269 2.64612 8.63659 2.64612 7.6036Z" fill="white" stroke="white" stroke-width="0.1"/>
<path d="M3.69219 7.07318C3.69219 7.52504 4.05397 7.88681 4.50582 7.88681C4.58082 7.88681 4.64721 7.8616 4.69497 7.81384C4.74273 7.76608 4.76795 7.69969 4.76795 7.62469C4.76795 7.54969 4.74273 7.48331 4.69497 7.43555C4.64721 7.38779 4.58082 7.36257 4.50582 7.36257C4.34253 7.36257 4.21643 7.23647 4.21643 7.07318C4.21643 6.99251 4.25247 6.91434 4.30856 6.85591C4.3649 6.79722 4.43739 6.76257 4.50582 6.76257C4.66912 6.76257 4.79522 6.88867 4.79522 7.05197C4.79522 7.12697 4.82044 7.19335 4.8682 7.24111C4.91596 7.28887 4.98234 7.31409 5.05734 7.31409C5.13234 7.31409 5.19872 7.28887 5.24648 7.24111C5.29424 7.19335 5.31946 7.12697 5.31946 7.05197C5.31946 6.60011 4.95768 6.23833 4.50582 6.23833C4.0743 6.23833 3.69219 6.62221 3.69219 7.07318Z" fill="white" stroke="white" stroke-width="0.1"/>
<path d="M3.69219 8.17617C3.69219 8.62803 4.05397 8.98981 4.50582 8.98981C4.95768 8.98981 5.31946 8.62803 5.31946 8.17617C5.31946 7.72432 4.95768 7.36254 4.50582 7.36254C4.43083 7.36254 4.36444 7.38775 4.31668 7.43551C4.26892 7.48327 4.2437 7.54966 4.2437 7.62466C4.2437 7.69966 4.26892 7.76604 4.31668 7.8138C4.36444 7.86156 4.43083 7.88678 4.50582 7.88678C4.66912 7.88678 4.79522 8.01288 4.79522 8.17617C4.79522 8.33947 4.66912 8.46557 4.50582 8.46557C4.34253 8.46557 4.21643 8.33947 4.21643 8.17617C4.21643 8.10117 4.19121 8.03479 4.14345 7.98703C4.09569 7.93927 4.02931 7.91405 3.95431 7.91405C3.87931 7.91405 3.81293 7.93927 3.76517 7.98703C3.71741 8.03479 3.69219 8.10117 3.69219 8.17617ZM4.2437 6.50041C4.2437 6.57541 4.26892 6.6418 4.31668 6.68956C4.36444 6.73732 4.43083 6.76254 4.50582 6.76254C4.58082 6.76254 4.64721 6.73732 4.69497 6.68956C4.74273 6.6418 4.76795 6.57541 4.76795 6.50041V6.28829C4.76795 6.21329 4.74273 6.14691 4.69497 6.09915C4.64721 6.05139 4.58082 6.02617 4.50582 6.02617C4.43083 6.02617 4.36444 6.05139 4.31668 6.09915C4.26892 6.14691 4.2437 6.21329 4.2437 6.28829V6.50041Z" fill="white" stroke="white" stroke-width="0.1"/>
<path d="M4.24297 8.93993C4.24297 9.01493 4.26819 9.08132 4.31595 9.12908C4.36371 9.17684 4.43009 9.20206 4.50509 9.20206C4.58009 9.20206 4.64647 9.17684 4.69423 9.12908C4.74199 9.08132 4.76721 9.01493 4.76721 8.93993V8.72781C4.76721 8.65281 4.74199 8.58643 4.69423 8.53867C4.64647 8.49091 4.58009 8.46569 4.50509 8.46569C4.43009 8.46569 4.36371 8.49091 4.31595 8.53867C4.26819 8.58643 4.24297 8.65281 4.24297 8.72781V8.93993ZM5.5157 3.53084C5.5157 4.8524 6.57748 5.91418 7.89903 5.91418C9.22058 5.91418 10.2824 4.8524 10.2824 3.53084C10.2824 2.20929 9.22058 1.14751 7.89903 1.14751C6.57748 1.14751 5.5157 2.20929 5.5157 3.53084ZM6.03994 3.53084C6.03994 2.49785 6.86604 1.67175 7.89903 1.67175C8.93202 1.67175 9.75812 2.49785 9.75812 3.53084C9.75812 4.56383 8.93202 5.38993 7.89903 5.38993C6.86604 5.38993 6.03994 4.56383 6.03994 3.53084Z" fill="white" stroke="white" stroke-width="0.1"/>
<path d="M6.76641 3.2764C6.76641 3.5757 6.8933 3.9046 7.09546 4.15867C7.2975 4.41257 7.58097 4.59913 7.89822 4.59913C8.22524 4.59913 8.50888 4.41875 8.70898 4.16657C8.909 3.91449 9.03004 3.58552 9.03004 3.2764C9.03004 2.63363 8.54099 2.14458 7.89822 2.14458C7.27667 2.14458 6.76641 2.65484 6.76641 3.2764ZM7.29065 3.2764C7.29065 2.94341 7.56523 2.66882 7.89822 2.66882C8.23122 2.66882 8.5058 2.94341 8.5058 3.2764C8.5058 3.45477 8.43088 3.65668 8.31413 3.81403C8.19651 3.97256 8.04516 4.07488 7.89822 4.07488C7.7521 4.07488 7.60073 3.96825 7.48255 3.80638C7.36535 3.64587 7.29065 3.44384 7.29065 3.2764Z" fill="white" stroke="white" stroke-width="0.1"/>
<path d="M8.99834 5.46242L8.99831 5.46246L9.00026 5.46344C9.02472 5.47567 9.04543 5.48293 9.06743 5.48659C9.08747 5.48994 9.10705 5.48993 9.12659 5.48993L9.12868 5.48993C9.23292 5.48993 9.31109 5.43676 9.36119 5.3616L9.36124 5.36163L9.36246 5.35959C9.44251 5.22618 9.38636 5.06956 9.26047 4.99402L9.26048 4.994L9.25902 4.99319L8.6863 4.67501L8.68632 4.67497L8.68437 4.67399C8.61881 4.64121 8.58474 4.57528 8.58474 4.50659V4.18841C8.58474 4.11341 8.55952 4.04703 8.51176 3.99927C8.464 3.95151 8.39762 3.92629 8.32262 3.92629C8.24762 3.92629 8.18124 3.95151 8.13348 3.99927C8.08572 4.04703 8.0605 4.11341 8.0605 4.18841V4.50659C8.0605 4.77943 8.19762 5.00748 8.42417 5.14341L8.42415 5.14343L8.42561 5.14424L8.99834 5.46242ZM6.43429 5.33838L6.43424 5.33841L6.43556 5.34039C6.48567 5.41555 6.56383 5.46871 6.66807 5.46871C6.67012 5.46871 6.67218 5.46872 6.67425 5.46873C6.70916 5.46884 6.74788 5.46896 6.78258 5.43822L7.15807 5.22962L7.36922 5.12404L7.36929 5.12417L7.37259 5.1222C7.59913 4.98627 7.73626 4.75822 7.73626 4.48538V4.1672C7.73626 4.0922 7.71104 4.02582 7.66328 3.97806C7.61552 3.9303 7.54913 3.90508 7.47413 3.90508C7.39914 3.90508 7.33275 3.9303 7.28499 3.97806C7.23723 4.02582 7.21201 4.0922 7.21201 4.1672V4.48538C7.21201 4.55477 7.17715 4.62214 7.13005 4.65465L6.5384 4.97161L6.53837 4.97156L6.53629 4.97281C6.41039 5.04835 6.35425 5.20497 6.43429 5.33838Z" fill="white" stroke="white" stroke-width="0.1"/>
<path d="M5.51641 3.53084C5.51641 4.8524 6.57819 5.91418 7.89974 5.91418C9.22129 5.91418 10.2831 4.8524 10.2831 3.53084C10.2831 2.20929 9.22129 1.14751 7.89974 1.14751C6.57819 1.14751 5.51641 2.20929 5.51641 3.53084ZM6.04065 3.53084C6.04065 2.49785 6.86675 1.67175 7.89974 1.67175C8.93273 1.67175 9.75883 2.49785 9.75883 3.53084C9.75883 4.56383 8.93273 5.38993 7.89974 5.38993C6.86675 5.38993 6.04065 4.56383 6.04065 3.53084Z" fill="white" stroke="white" stroke-width="0.1"/>
<path d="M6.76641 3.2764C6.76641 3.5757 6.8933 3.9046 7.09546 4.15867C7.2975 4.41257 7.58097 4.59913 7.89822 4.59913C8.22524 4.59913 8.50888 4.41875 8.70898 4.16657C8.909 3.91449 9.03004 3.58552 9.03004 3.2764C9.03004 2.63363 8.54099 2.14458 7.89822 2.14458C7.27667 2.14458 6.76641 2.65484 6.76641 3.2764ZM7.29065 3.2764C7.29065 2.94341 7.56523 2.66882 7.89822 2.66882C8.23122 2.66882 8.5058 2.94341 8.5058 3.2764C8.5058 3.45477 8.43088 3.65668 8.31413 3.81403C8.19651 3.97256 8.04516 4.07488 7.89822 4.07488C7.7521 4.07488 7.60073 3.96825 7.48255 3.80638C7.36535 3.64587 7.29065 3.44384 7.29065 3.2764Z" fill="white" stroke="white" stroke-width="0.1"/>
<path d="M8.99978 5.46242L8.99976 5.46246L9.0017 5.46344C9.02616 5.47567 9.04687 5.48293 9.06887 5.48659C9.08892 5.48994 9.1085 5.48993 9.12803 5.48993L9.13012 5.48993C9.23437 5.48993 9.31253 5.43676 9.36263 5.3616L9.36268 5.36163L9.36391 5.35959C9.44395 5.22618 9.3878 5.06956 9.26191 4.99402L9.26192 4.994L9.26047 4.99319L8.68774 4.67501L8.68776 4.67497L8.68582 4.67399C8.62025 4.64121 8.58618 4.57528 8.58618 4.50659V4.18841C8.58618 4.11341 8.56097 4.04703 8.51321 3.99927C8.46545 3.95151 8.39906 3.92629 8.32406 3.92629C8.24906 3.92629 8.18268 3.95151 8.13492 3.99927C8.08716 4.04703 8.06194 4.11341 8.06194 4.18841V4.50659C8.06194 4.77943 8.19906 5.00748 8.42561 5.14341L8.4256 5.14343L8.42705 5.14424L8.99978 5.46242ZM6.43573 5.33838L6.43568 5.33841L6.437 5.34039C6.48711 5.41555 6.56527 5.46871 6.66952 5.46871C6.67156 5.46871 6.67362 5.46872 6.67569 5.46873C6.7106 5.46884 6.74933 5.46896 6.78403 5.43822L7.15952 5.22962L7.37066 5.12404L7.37073 5.12417L7.37403 5.1222C7.60057 4.98627 7.7377 4.75822 7.7377 4.48538V4.1672C7.7377 4.0922 7.71248 4.02582 7.66472 3.97806C7.61696 3.9303 7.55058 3.90508 7.47558 3.90508C7.40058 3.90508 7.33419 3.9303 7.28643 3.97806C7.23867 4.02582 7.21346 4.0922 7.21346 4.1672V4.48538C7.21346 4.55477 7.1786 4.62214 7.1315 4.65465L6.53984 4.97161L6.53982 4.97156L6.53773 4.97281C6.41184 5.04835 6.35569 5.20497 6.43573 5.33838ZM7.63279 14.7793L7.63271 14.7796L7.6382 14.7803C7.65684 14.783 7.67525 14.7857 7.69344 14.7883C7.81826 14.8065 7.9333 14.8233 8.0483 14.8233C8.33239 14.8233 8.59455 14.7576 8.85551 14.6271L8.85552 14.6271L8.85655 14.6265L13.1828 12.3362C13.183 12.3361 13.1831 12.336 13.1833 12.3359C13.5875 12.1335 13.7676 11.6828 13.6104 11.256L13.6104 11.256L13.6099 11.2547C13.4308 10.807 12.9375 10.5595 12.4658 10.7167L12.4658 10.7167L12.4647 10.7171L9.3465 11.8414L9.34649 11.8413L9.34489 11.842C9.21653 11.8933 9.13579 12.0478 9.18976 12.1827C9.24099 12.3108 9.39493 12.3915 9.52964 12.3382L12.6458 11.2147C12.8335 11.1591 13.0392 11.2533 13.114 11.4403C13.1522 11.5357 13.1512 11.6232 13.1219 11.6977C13.0924 11.7725 13.0326 11.8384 12.9458 11.8868L8.59789 14.1562L8.59733 14.1565C8.33427 14.2982 8.05017 14.3193 7.76276 14.2579L5.02813 13.5584C5.02799 13.5583 5.02786 13.5583 5.02773 13.5582C4.55149 13.4285 4.05422 13.4502 3.62182 13.5799L3.62181 13.5799L3.62037 13.5804C3.47105 13.6301 3.38696 13.7839 3.44073 13.9207C3.49087 14.0689 3.6435 14.1522 3.77969 14.0994C4.13187 13.9962 4.5248 13.9759 4.9174 14.0792L4.91764 14.0793L7.63279 14.7793Z" fill="white" stroke="white" stroke-width="0.1"/>
<path d="M9.38378 12.4687V12.4687L6.86037 12.4263C6.86023 12.4263 6.86008 12.4263 6.85993 12.4263L6.85953 12.4263L6.86037 12.3763C6.7331 12.3763 6.64825 12.2702 6.64825 12.1642C6.64825 12.0581 6.75431 11.9521 6.86037 11.9521L9.38378 12.4687ZM9.38378 12.4687H9.38462C9.42227 12.4687 9.45588 12.4624 9.48712 12.4485C9.51814 12.4347 9.54429 12.4146 9.56846 12.3904C9.59262 12.3663 9.61273 12.3401 9.62652 12.3091C9.6404 12.2779 9.64674 12.2443 9.64674 12.2066C9.64674 11.9682 9.60357 11.7711 9.53745 11.6161C9.31792 10.9603 8.70575 10.5239 8.02865 10.5021V10.5021L8.02795 10.5021L6.8629 10.4809C6.60381 10.4595 6.30239 10.4811 6.00079 10.5669L3.64891 10.9694L3.64891 10.9694L3.64754 10.9697C3.57856 10.9835 3.52049 11.0305 3.48317 11.0864C3.44584 11.1424 3.42482 11.2141 3.43862 11.2831C3.45241 11.3521 3.49938 11.4101 3.55537 11.4474C3.61114 11.4846 3.68249 11.5056 3.75123 11.4921L6.12631 11.0892L6.12638 11.0897L6.13265 11.0877C6.4028 11.0046 6.62943 10.9844 6.83419 11.0048L6.83417 11.005L6.83825 11.0051L8.00428 11.0263C8.47101 11.0468 8.87771 11.3513 9.04066 11.7994L9.03928 11.7999L9.04604 11.8101C9.06264 11.835 9.07147 11.8604 9.0787 11.8917C9.08185 11.9054 9.08455 11.9194 9.08758 11.9352C9.08809 11.9379 9.08861 11.9406 9.08914 11.9433L9.38378 12.4687Z" fill="white" stroke="white" stroke-width="0.1"/>
<path d="M10.7957 9.9011L10.7956 9.90123L10.7993 9.90168L10.8008 9.90188C10.9695 9.92296 11.1418 9.94449 11.3146 9.94449C11.4886 9.94449 11.641 9.9227 11.8135 9.87964C11.9408 9.85349 12.0487 9.7254 12.0212 9.58772L12.0212 9.58772L12.021 9.58668C11.9929 9.46025 12.016 9.39009 12.0343 9.35766C12.0474 9.36292 12.0645 9.3711 12.084 9.38299C12.1265 9.40897 12.1796 9.45223 12.2284 9.52053L12.2284 9.52053L12.2291 9.52146C12.2677 9.57295 12.3251 9.61121 12.3863 9.62732C12.447 9.64329 12.5156 9.63824 12.5724 9.59692C12.834 9.44375 13.0715 9.20511 13.2858 8.88392C13.3657 8.77591 13.3379 8.61842 13.2325 8.53934L13.2325 8.53933L13.2315 8.53866C13.1606 8.48797 13.112 8.43873 13.0842 8.39937C13.0702 8.37957 13.0627 8.3639 13.0594 8.3531C13.0583 8.34952 13.0579 8.34704 13.0577 8.34549C13.0594 8.34365 13.0629 8.34048 13.0693 8.33652C13.0797 8.33007 13.0955 8.32315 13.1171 8.31747C13.1599 8.30621 13.2217 8.30088 13.3006 8.31057C13.438 8.3368 13.5654 8.22854 13.5909 8.10127L13.591 8.10068C13.6557 7.7554 13.6558 7.40954 13.5909 7.08469C13.5653 6.95682 13.4368 6.84814 13.2987 6.87577L13.2987 6.87576L13.2977 6.87599C13.1712 6.90408 13.1011 6.88093 13.0686 6.86269C13.0739 6.84952 13.0821 6.83245 13.094 6.81299C13.12 6.77048 13.1632 6.7173 13.2315 6.66851L13.2315 6.66853L13.2325 6.66783C13.2839 6.62921 13.3222 6.57185 13.3383 6.51063C13.3543 6.44992 13.3492 6.38138 13.3079 6.32454C13.1546 6.06268 12.9156 5.82496 12.5938 5.61047L12.5939 5.61042L12.5918 5.6092C12.4599 5.53006 12.3053 5.58417 12.2291 5.68571L12.2284 5.68664C12.1785 5.75662 12.1303 5.79893 12.0926 5.82109C12.0737 5.83221 12.0586 5.83759 12.0481 5.83958C12.0421 5.84071 12.0386 5.84059 12.0371 5.84043L12.0372 5.84023L12.0304 5.83797C12.0238 5.83578 12.0091 5.8262 11.9999 5.7823C11.991 5.74004 11.9902 5.67796 12.0003 5.59631C12.0266 5.45892 11.9183 5.33153 11.791 5.30607L11.791 5.30607L11.7905 5.30596C11.4452 5.24122 11.0993 5.2411 10.7745 5.30607C10.6466 5.33164 10.5379 5.46012 10.5655 5.59824L10.5655 5.59824L10.5658 5.59928C10.5939 5.72571 10.5707 5.79587 10.5525 5.8283C10.5393 5.82304 10.5222 5.81486 10.5028 5.80297C10.4603 5.77699 10.4071 5.73373 10.3583 5.66543L10.3583 5.66542L10.3576 5.66449C10.319 5.613 10.2616 5.57475 10.2004 5.55864C10.1397 5.54267 10.0712 5.54772 10.0143 5.58904C9.75246 5.74238 9.51474 5.98138 9.30024 6.30312L9.3002 6.30309L9.29897 6.30513C9.21984 6.43702 9.27394 6.59167 9.37548 6.66783L9.37547 6.66784L9.37642 6.66851C9.44639 6.71849 9.4887 6.76663 9.51087 6.80431C9.52198 6.82321 9.52737 6.83833 9.52936 6.84889C9.53048 6.85483 9.53037 6.85831 9.5302 6.85988L9.53 6.85979L9.52774 6.86656C9.52556 6.87312 9.51598 6.88784 9.47207 6.89708C9.42982 6.90598 9.36774 6.9067 9.28609 6.8966C9.1487 6.87036 9.0213 6.97863 8.99584 7.1059L8.99573 7.10649C8.93099 7.45177 8.93088 7.79763 8.99585 8.12248C9.02142 8.25035 9.14989 8.35903 9.28801 8.3314L9.28802 8.33141L9.28906 8.33118C9.41549 8.30309 9.48564 8.32624 9.51808 8.34447C9.51281 8.35764 9.50464 8.37471 9.49274 8.39418C9.46677 8.43669 9.42351 8.48987 9.35521 8.53866L9.3552 8.53865L9.35427 8.53934C9.30278 8.57796 9.26453 8.63532 9.24842 8.69654C9.23244 8.75725 9.2375 8.82579 9.27881 8.88263C9.43215 9.14449 9.67116 9.38221 9.9929 9.5967L9.99287 9.59675L9.99491 9.59798C10.1268 9.67711 10.2814 9.623 10.3576 9.52146L10.3583 9.52053C10.4083 9.45055 10.4564 9.40824 10.4941 9.38608C10.513 9.37496 10.5281 9.36958 10.5387 9.36759C10.5446 9.36646 10.5481 9.36658 10.5497 9.36674L10.5496 9.36694L10.5563 9.3692C10.5629 9.37139 10.5776 9.38097 10.5869 9.42487C10.5958 9.46713 10.5965 9.5292 10.5864 9.61085C10.5601 9.74824 10.6684 9.87564 10.7957 9.9011ZM2.40548 14.6112H3.69942C3.77442 14.6112 3.8408 14.5859 3.88856 14.5382C3.93632 14.4904 3.96154 14.424 3.96154 14.349V10.7218C3.96154 10.6468 3.93632 10.5804 3.88856 10.5326C3.8408 10.4849 3.77442 10.4596 3.69942 10.4596H2.40548C2.33048 10.4596 2.2641 10.4849 2.21634 10.5326C2.16858 10.5804 2.14336 10.6468 2.14336 10.7218V14.349C2.14336 14.424 2.16858 14.4904 2.21634 14.5382C2.2641 14.5859 2.33048 14.6112 2.40548 14.6112ZM3.4373 10.9839V14.0869H2.6676V10.9839H3.4373ZM11.8458 8.87305C11.6451 8.96224 11.513 9.1748 11.4991 9.42607C11.3789 9.43963 11.2472 9.43952 11.1272 9.42575C11.0964 9.16149 10.9671 8.9412 10.7567 8.89205C10.5356 8.80536 10.2982 8.86627 10.1035 9.04249C10.0066 8.95915 9.92347 8.87624 9.85394 8.79381C10.0313 8.59621 10.0931 8.33815 10.0027 8.13479C9.9135 7.93412 9.70093 7.80204 9.44966 7.78814C9.43611 7.66793 9.43621 7.53635 9.44997 7.41631C9.71632 7.38699 9.9135 7.27422 10.0034 7.04943C10.0923 6.82732 10.0317 6.58828 9.85445 6.39254C9.93829 6.29502 10.0217 6.21149 10.1046 6.1417C10.3169 6.31862 10.5568 6.38297 10.7622 6.2917C10.9628 6.20251 11.0949 5.98994 11.1088 5.73867C11.229 5.72512 11.3606 5.72523 11.4806 5.73898C11.51 6.00534 11.6227 6.20252 11.8475 6.29243C12.0696 6.38128 12.3087 6.32068 12.5044 6.14347C12.6019 6.2273 12.6855 6.31071 12.7552 6.39363C12.5783 6.60596 12.514 6.84582 12.6052 7.05116C12.6944 7.25186 12.907 7.38394 13.1583 7.39783C13.172 7.51619 13.1717 7.63627 13.1574 7.77004C12.9104 7.79979 12.6949 7.91163 12.6049 8.13566C12.5148 8.33934 12.5774 8.5777 12.7535 8.7722C12.6696 8.86973 12.5862 8.95326 12.5033 9.02304C12.291 8.84613 12.0511 8.78178 11.8458 8.87305Z" fill="white" stroke="white" stroke-width="0.1"/>
<path d="M11.2931 8.77787L11.2948 8.77781C11.9365 8.75568 12.4461 8.22486 12.4461 7.6036C12.4461 6.96021 11.9352 6.45057 11.2719 6.45054L11.2702 6.4506C10.6285 6.47272 10.1188 7.00355 10.1188 7.62481L10.1189 7.62653C10.141 8.26823 10.6718 8.77784 11.2931 8.77787ZM11.2916 8.25359C10.9603 8.25273 10.6636 7.95816 10.6431 7.62335C10.644 7.292 10.9385 6.99532 11.2733 6.97481C11.649 6.97553 11.9219 7.25086 11.9219 7.6036C11.9219 7.93553 11.6269 8.23305 11.2916 8.25359ZM2.12187 7.6036C2.12187 8.92515 3.18365 9.98693 4.50521 9.98693C5.82676 9.98693 6.88854 8.92515 6.88854 7.6036C6.88854 6.28204 5.82676 5.22026 4.50521 5.22026C3.18365 5.22026 2.12187 6.28204 2.12187 7.6036ZM2.64612 7.6036C2.64612 6.57061 3.47222 5.74451 4.50521 5.74451C5.5382 5.74451 6.3643 6.57061 6.3643 7.6036C6.3643 8.63659 5.5382 9.46269 4.50521 9.46269C3.47222 9.46269 2.64612 8.63659 2.64612 7.6036Z" fill="white" stroke="white" stroke-width="0.1"/>
<path d="M3.69219 7.07318C3.69219 7.52504 4.05397 7.88681 4.50582 7.88681C4.58082 7.88681 4.64721 7.8616 4.69497 7.81384C4.74273 7.76608 4.76795 7.69969 4.76795 7.62469C4.76795 7.54969 4.74273 7.48331 4.69497 7.43555C4.64721 7.38779 4.58082 7.36257 4.50582 7.36257C4.34253 7.36257 4.21643 7.23647 4.21643 7.07318C4.21643 6.99251 4.25247 6.91434 4.30856 6.85591C4.3649 6.79722 4.43739 6.76257 4.50582 6.76257C4.66912 6.76257 4.79522 6.88867 4.79522 7.05197C4.79522 7.12697 4.82044 7.19335 4.8682 7.24111C4.91596 7.28887 4.98234 7.31409 5.05734 7.31409C5.13234 7.31409 5.19872 7.28887 5.24648 7.24111C5.29424 7.19335 5.31946 7.12697 5.31946 7.05197C5.31946 6.60011 4.95768 6.23833 4.50582 6.23833C4.0743 6.23833 3.69219 6.62221 3.69219 7.07318Z" fill="white" stroke="white" stroke-width="0.1"/>
<path d="M3.69219 8.17617C3.69219 8.62803 4.05397 8.98981 4.50582 8.98981C4.95768 8.98981 5.31946 8.62803 5.31946 8.17617C5.31946 7.72432 4.95768 7.36254 4.50582 7.36254C4.43083 7.36254 4.36444 7.38775 4.31668 7.43551C4.26892 7.48327 4.2437 7.54966 4.2437 7.62466C4.2437 7.69966 4.26892 7.76604 4.31668 7.8138C4.36444 7.86156 4.43083 7.88678 4.50582 7.88678C4.66912 7.88678 4.79522 8.01288 4.79522 8.17617C4.79522 8.33947 4.66912 8.46557 4.50582 8.46557C4.34253 8.46557 4.21643 8.33947 4.21643 8.17617C4.21643 8.10117 4.19121 8.03479 4.14345 7.98703C4.09569 7.93927 4.02931 7.91405 3.95431 7.91405C3.87931 7.91405 3.81293 7.93927 3.76517 7.98703C3.71741 8.03479 3.69219 8.10117 3.69219 8.17617ZM4.2437 6.50041C4.2437 6.57541 4.26892 6.6418 4.31668 6.68956C4.36444 6.73732 4.43083 6.76254 4.50582 6.76254C4.58082 6.76254 4.64721 6.73732 4.69497 6.68956C4.74273 6.6418 4.76795 6.57541 4.76795 6.50041V6.28829C4.76795 6.21329 4.74273 6.14691 4.69497 6.09915C4.64721 6.05139 4.58082 6.02617 4.50582 6.02617C4.43083 6.02617 4.36444 6.05139 4.31668 6.09915C4.26892 6.14691 4.2437 6.21329 4.2437 6.28829V6.50041Z" fill="white" stroke="white" stroke-width="0.1"/>
<path d="M4.24297 8.93993C4.24297 9.01493 4.26819 9.08132 4.31595 9.12908C4.36371 9.17684 4.43009 9.20206 4.50509 9.20206C4.58009 9.20206 4.64647 9.17684 4.69423 9.12908C4.74199 9.08132 4.76721 9.01493 4.76721 8.93993V8.72781C4.76721 8.65281 4.74199 8.58643 4.69423 8.53867C4.64647 8.49091 4.58009 8.46569 4.50509 8.46569C4.43009 8.46569 4.36371 8.49091 4.31595 8.53867C4.26819 8.58643 4.24297 8.65281 4.24297 8.72781V8.93993ZM5.5157 3.53084C5.5157 4.8524 6.57748 5.91418 7.89903 5.91418C9.22058 5.91418 10.2824 4.8524 10.2824 3.53084C10.2824 2.20929 9.22058 1.14751 7.89903 1.14751C6.57748 1.14751 5.5157 2.20929 5.5157 3.53084ZM6.03994 3.53084C6.03994 2.49785 6.86604 1.67175 7.89903 1.67175C8.93202 1.67175 9.75812 2.49785 9.75812 3.53084C9.75812 4.56383 8.93202 5.38993 7.89903 5.38993C6.86604 5.38993 6.03994 4.56383 6.03994 3.53084Z" fill="white" stroke="white" stroke-width="0.1"/>
<path d="M6.76641 3.2764C6.76641 3.5757 6.8933 3.9046 7.09546 4.15867C7.2975 4.41257 7.58097 4.59913 7.89822 4.59913C8.22524 4.59913 8.50888 4.41875 8.70898 4.16657C8.909 3.91449 9.03004 3.58552 9.03004 3.2764C9.03004 2.63363 8.54099 2.14458 7.89822 2.14458C7.27667 2.14458 6.76641 2.65484 6.76641 3.2764ZM7.29065 3.2764C7.29065 2.94341 7.56523 2.66882 7.89822 2.66882C8.23122 2.66882 8.5058 2.94341 8.5058 3.2764C8.5058 3.45477 8.43088 3.65668 8.31413 3.81403C8.19651 3.97256 8.04516 4.07488 7.89822 4.07488C7.7521 4.07488 7.60073 3.96825 7.48255 3.80638C7.36535 3.64587 7.29065 3.44384 7.29065 3.2764Z" fill="white" stroke="white" stroke-width="0.1"/>
<path d="M8.99834 5.46242L8.99831 5.46246L9.00026 5.46344C9.02472 5.47567 9.04543 5.48293 9.06743 5.48659C9.08747 5.48994 9.10705 5.48993 9.12659 5.48993L9.12868 5.48993C9.23292 5.48993 9.31109 5.43676 9.36119 5.3616L9.36124 5.36163L9.36246 5.35959C9.44251 5.22618 9.38636 5.06956 9.26047 4.99402L9.26048 4.994L9.25902 4.99319L8.6863 4.67501L8.68632 4.67497L8.68437 4.67399C8.61881 4.64121 8.58474 4.57528 8.58474 4.50659V4.18841C8.58474 4.11341 8.55952 4.04703 8.51176 3.99927C8.464 3.95151 8.39762 3.92629 8.32262 3.92629C8.24762 3.92629 8.18124 3.95151 8.13348 3.99927C8.08572 4.04703 8.0605 4.11341 8.0605 4.18841V4.50659C8.0605 4.77943 8.19762 5.00748 8.42417 5.14341L8.42415 5.14343L8.42561 5.14424L8.99834 5.46242ZM6.43429 5.33838L6.43424 5.33841L6.43556 5.34039C6.48567 5.41555 6.56383 5.46871 6.66807 5.46871C6.67012 5.46871 6.67218 5.46872 6.67425 5.46873C6.70916 5.46884 6.74788 5.46896 6.78258 5.43822L7.15807 5.22962L7.36922 5.12404L7.36929 5.12417L7.37259 5.1222C7.59913 4.98627 7.73626 4.75822 7.73626 4.48538V4.1672C7.73626 4.0922 7.71104 4.02582 7.66328 3.97806C7.61552 3.9303 7.54913 3.90508 7.47413 3.90508C7.39914 3.90508 7.33275 3.9303 7.28499 3.97806C7.23723 4.02582 7.21201 4.0922 7.21201 4.1672V4.48538C7.21201 4.55477 7.17715 4.62214 7.13005 4.65465L6.5384 4.97161L6.53837 4.97156L6.53629 4.97281C6.41039 5.04835 6.35425 5.20497 6.43429 5.33838Z" fill="white" stroke="white" stroke-width="0.1"/>
<path d="M5.51641 3.53084C5.51641 4.8524 6.57819 5.91418 7.89974 5.91418C9.22129 5.91418 10.2831 4.8524 10.2831 3.53084C10.2831 2.20929 9.22129 1.14751 7.89974 1.14751C6.57819 1.14751 5.51641 2.20929 5.51641 3.53084ZM6.04065 3.53084C6.04065 2.49785 6.86675 1.67175 7.89974 1.67175C8.93273 1.67175 9.75883 2.49785 9.75883 3.53084C9.75883 4.56383 8.93273 5.38993 7.89974 5.38993C6.86675 5.38993 6.04065 4.56383 6.04065 3.53084Z" fill="white" stroke="white" stroke-width="0.1"/>
<path d="M6.76641 3.2764C6.76641 3.5757 6.8933 3.9046 7.09546 4.15867C7.2975 4.41257 7.58097 4.59913 7.89822 4.59913C8.22524 4.59913 8.50888 4.41875 8.70898 4.16657C8.909 3.91449 9.03004 3.58552 9.03004 3.2764C9.03004 2.63363 8.54099 2.14458 7.89822 2.14458C7.27667 2.14458 6.76641 2.65484 6.76641 3.2764ZM7.29065 3.2764C7.29065 2.94341 7.56523 2.66882 7.89822 2.66882C8.23122 2.66882 8.5058 2.94341 8.5058 3.2764C8.5058 3.45477 8.43088 3.65668 8.31413 3.81403C8.19651 3.97256 8.04516 4.07488 7.89822 4.07488C7.7521 4.07488 7.60073 3.96825 7.48255 3.80638C7.36535 3.64587 7.29065 3.44384 7.29065 3.2764Z" fill="white" stroke="white" stroke-width="0.1"/>
<path d="M8.99834 5.46242L8.99831 5.46246L9.00026 5.46344C9.02472 5.47567 9.04543 5.48293 9.06743 5.48659C9.08747 5.48994 9.10705 5.48993 9.12659 5.48993L9.12868 5.48993C9.23292 5.48993 9.31109 5.43676 9.36119 5.3616L9.36124 5.36163L9.36246 5.35959C9.44251 5.22618 9.38636 5.06956 9.26047 4.99402L9.26048 4.994L9.25902 4.99319L8.6863 4.67501L8.68632 4.67497L8.68437 4.67399C8.61881 4.64121 8.58474 4.57528 8.58474 4.50659V4.18841C8.58474 4.11341 8.55952 4.04703 8.51176 3.99927C8.464 3.95151 8.39762 3.92629 8.32262 3.92629C8.24762 3.92629 8.18124 3.95151 8.13348 3.99927C8.08572 4.04703 8.0605 4.11341 8.0605 4.18841V4.50659C8.0605 4.77943 8.19762 5.00748 8.42417 5.14341L8.42415 5.14343L8.42561 5.14424L8.99834 5.46242ZM6.43429 5.33838L6.43424 5.33841L6.43556 5.34039C6.48567 5.41555 6.56383 5.46871 6.66807 5.46871C6.67012 5.46871 6.67218 5.46872 6.67425 5.46873C6.70916 5.46884 6.74788 5.46896 6.78258 5.43822L7.15807 5.22962L7.36922 5.12404L7.36929 5.12417L7.37259 5.1222C7.59913 4.98627 7.73626 4.75822 7.73626 4.48538V4.1672C7.73626 4.0922 7.71104 4.02582 7.66328 3.97806C7.61552 3.9303 7.54913 3.90508 7.47413 3.90508C7.39914 3.90508 7.33275 3.9303 7.28499 3.97806C7.23723 4.02582 7.21201 4.0922 7.21201 4.1672V4.48538C7.21201 4.55477 7.17715 4.62214 7.13005 4.65465L6.5384 4.97161L6.53837 4.97156L6.53629 4.97281C6.41039 5.04835 6.35425 5.20497 6.43429 5.33838Z" fill="white" stroke="white" stroke-width="0.1"/>
</g>
<defs>
<clipPath id="clip0_239_4261">
<rect width="14" height="14" fill="white" transform="translate(0.898438 0.985352)"/>
</clipPath>
</defs>
</svg>