<?xml version="1.0" encoding="utf-8"?>
<!-- Generator: Adobe Illustrator 16.0.0, SVG Export Plug-In . SVG Version: 6.00 Build 0)  -->
<!DOCTYPE svg PUBLIC "-//W3C//DTD SVG 1.1//EN" "http://www.w3.org/Graphics/SVG/1.1/DTD/svg11.dtd">
<svg version="1.1" id="Capa_1" xmlns="http://www.w3.org/2000/svg" xmlns:xlink="http://www.w3.org/1999/xlink" x="0px" y="0px"
	 width="42px" height="42px" viewBox="0 235 42 42" enable-background="new 0 235 42 42" xml:space="preserve">
<g>
	<path fill="#203364" d="M18.245,257.876c0.204-0.097,0.357-0.269,0.432-0.481c0.075-0.212,0.063-0.441-0.034-0.645
		c-0.14-0.292-0.439-0.48-0.763-0.48c-0.126,0-0.249,0.028-0.363,0.083c-1.852,0.886-3.187,2.683-3.511,4.713
		c-1.39,0.542-2.542,1.562-3.253,2.881c-0.221,0.409-0.067,0.923,0.343,1.144l0.009,0.005c0.132,0.063,0.264,0.097,0.392,0.097
		c0.271,0,0.514-0.139,0.723-0.412l0.012-0.016l0.009-0.016c0.411-0.764,1.013-1.383,1.752-1.809
		c0.193,1.363,0.832,2.631,1.821,3.604l0.008,0.008l0.009,0.008c0.185,0.15,0.378,0.227,0.576,0.227
		c0.201,0,0.398-0.079,0.585-0.236l0.008-0.008l0.008-0.008c0.158-0.16,0.244-0.373,0.242-0.6c-0.001-0.225-0.091-0.436-0.252-0.594
		c-0.891-0.876-1.381-2.046-1.381-3.295C15.616,260.276,16.647,258.64,18.245,257.876z"/>
	<path fill="#203364" d="M1.415,259.414c-0.081,0.211-0.075,0.441,0.017,0.646c0.092,0.207,0.258,0.364,0.469,0.445
		c0.097,0.037,0.199,0.056,0.303,0.056c0.347,0,0.664-0.218,0.788-0.542c0.334-0.871,1.07-1.542,1.966-1.793
		c0.259-0.072,0.529-0.109,0.802-0.109c0.353,0,0.7,0.063,1.029,0.184c0.094,0.034,0.192,0.052,0.292,0.052
		c0.352,0,0.67-0.222,0.792-0.553c0.078-0.212,0.068-0.44-0.026-0.646c-0.095-0.205-0.263-0.36-0.475-0.438
		c-0.518-0.19-1.06-0.287-1.613-0.287c-0.286,0-0.572,0.026-0.853,0.079c-1.153-0.871-1.838-2.242-1.838-3.688
		c0-2.036,1.391-3.871,3.333-4.437c0.616,1.249,1.629,2.267,2.873,2.88c0.118,0.058,0.243,0.087,0.373,0.087
		c0.324,0,0.615-0.181,0.758-0.471c0.206-0.417,0.034-0.925-0.383-1.131c-1.077-0.532-1.922-1.485-2.318-2.616
		c-0.171-0.49-0.258-1.004-0.258-1.528c0-2.546,2.072-4.619,4.619-4.619c0.989,0,1.931,0.307,2.723,0.888
		c0.146,0.107,0.318,0.164,0.499,0.164c0.269,0,0.523-0.129,0.682-0.345c0.133-0.182,0.188-0.405,0.153-0.627
		c-0.034-0.223-0.153-0.419-0.335-0.553c-0.397-0.291-0.829-0.534-1.284-0.725c-0.02-0.855,0.28-1.673,0.833-2.263
		c0.512-0.547,1.185-0.836,1.945-0.836c1.465,0,2.679,1.144,2.766,2.605c-0.002,0.255,0.003,3.279,0.005,4.401
		c-0.803,0.623-1.802,0.965-2.826,0.965c-1.104,0-2.171-0.395-3.007-1.111c-0.153-0.131-0.348-0.203-0.549-0.203
		c-0.247,0-0.48,0.107-0.641,0.295c-0.147,0.171-0.218,0.389-0.201,0.614c0.017,0.225,0.121,0.43,0.292,0.576
		c1.142,0.979,2.6,1.517,4.107,1.517c0.983,0,1.952-0.229,2.826-0.667v22.815c0,0.465,0.379,0.844,0.844,0.844
		s0.844-0.379,0.844-0.844v-5.598h1.244v3.277c0,0.465,0.378,0.844,0.844,0.844h2.573c0.353,0.963,1.28,1.621,2.315,1.621
		c1.359,0,2.466-1.105,2.466-2.465s-1.106-2.466-2.466-2.466c-1.035,0-1.963,0.658-2.315,1.621h-1.729v-2.433h1.06
		c1.136,0,2.061-0.924,2.061-2.061v-0.371h0.924c0.466,0,0.845-0.379,0.845-0.844c0-0.466-0.379-0.845-0.845-0.845h-0.924v-1.998
		h1.017c0.353,0.963,1.28,1.621,2.315,1.621c1.359,0,2.466-1.106,2.466-2.465c0-1.359-1.106-2.465-2.466-2.465
		c-1.035,0-1.963,0.658-2.315,1.621h-1.017v-1.836h0.924c0.466,0,0.845-0.379,0.845-0.845c0-0.465-0.379-0.844-0.845-0.844h-0.924
		v-0.371c0-1.136-0.925-2.06-2.061-2.06h-1.06v-2.433h1.729c0.353,0.963,1.28,1.621,2.315,1.621c1.359,0,2.466-1.106,2.466-2.465
		s-1.106-2.465-2.466-2.465c-1.035,0-1.963,0.658-2.315,1.621h-2.573c-0.466,0-0.844,0.378-0.844,0.844v3.277h-1.244
		c0-2.527-0.002-9.447-0.004-9.842c0.086-1.461,1.3-2.605,2.766-2.605c0.749,0,1.417,0.29,1.931,0.838
		c0.554,0.591,0.864,1.437,0.847,2.288c-0.456,0.19-0.888,0.434-1.284,0.725c-0.376,0.275-0.457,0.805-0.183,1.18
		c0.159,0.216,0.413,0.345,0.682,0.345c0.181,0,0.353-0.057,0.497-0.162c0.813-0.585,1.73-0.884,2.725-0.889
		c2.547,0,4.619,2.072,4.619,4.619c0,1.718-1.036,3.383-2.577,4.144c-0.417,0.206-0.589,0.713-0.383,1.131l0.009,0.018l0.012,0.016
		c0.209,0.29,0.457,0.437,0.736,0.437c0.119,0,0.242-0.028,0.374-0.087c1.251-0.618,2.27-1.645,2.884-2.905
		c1.56,0.452,2.769,1.691,3.177,3.277l0.006,0.025l0.012,0.023c0.246,0.484,0.57,0.586,0.799,0.586c0.068,0,0.139-0.009,0.212-0.027
		c0.218-0.057,0.401-0.194,0.517-0.389c0.114-0.194,0.146-0.421,0.09-0.64c-0.552-2.14-2.182-3.83-4.283-4.46
		c0.07-0.378,0.105-0.763,0.105-1.147c0-3.478-2.83-6.307-6.308-6.307c-0.254,0-0.511,0.016-0.766,0.047
		C28.786,236.938,26.842,235,24.5,235c-1.446,0-2.771,0.683-3.61,1.844c-0.839-1.161-2.164-1.844-3.61-1.844
		c-1.218,0-2.344,0.498-3.172,1.402c-0.728,0.795-1.174,1.832-1.271,2.944c-0.257-0.032-0.516-0.048-0.772-0.048
		c-3.478,0-6.307,2.83-6.307,6.308c0,0.393,0.037,0.787,0.11,1.175c-1.136,0.342-2.146,0.992-2.93,1.889
		c-1.004,1.148-1.557,2.622-1.557,4.149c0,1.644,0.648,3.231,1.788,4.4C2.373,257.755,1.756,258.524,1.415,259.414z M26.103,260.838
		c0,0.205-0.167,0.371-0.372,0.371h-3.992v-1.553h1.961c0.466,0,0.845-0.379,0.845-0.844v-5.59c0-0.466-0.379-0.844-0.845-0.844
		h-1.961v-1.553h3.992c0.205,0,0.372,0.167,0.372,0.371V260.838z M22.854,254.066v3.901h-1.116v-3.901H22.854L22.854,254.066z
		 M28.715,265.398c0.429,0,0.777,0.349,0.777,0.777c0,0.428-0.349,0.775-0.777,0.775c-0.428,0-0.776-0.348-0.776-0.775
		C27.938,265.747,28.287,265.398,28.715,265.398z M31.123,255.159c0.429,0,0.777,0.349,0.777,0.777s-0.349,0.777-0.777,0.777
		c-0.423,0-0.77-0.343-0.775-0.764v-0.026C30.354,255.501,30.701,255.159,31.123,255.159z M28.715,245.082
		c0.429,0,0.777,0.349,0.777,0.777c0,0.428-0.349,0.776-0.777,0.776c-0.428,0-0.776-0.349-0.776-0.776
		C27.938,245.431,28.287,245.082,28.715,245.082z"/>
	<path fill="#203364" d="M18.871,253.519c0.199-0.107,0.344-0.285,0.408-0.501c0.065-0.216,0.042-0.444-0.065-0.643
		c-0.805-1.493-2.144-2.579-3.762-3.057c-0.086-0.029-0.177-0.043-0.268-0.043c-0.23,0-0.453,0.096-0.611,0.262
		c-0.321,0.337-0.308,0.873,0.029,1.193c0.098,0.093,0.218,0.162,0.348,0.2c1.199,0.349,2.186,1.146,2.778,2.246l0.009,0.017
		l0.011,0.015c0.209,0.273,0.452,0.412,0.723,0.412l0,0c0.128,0,0.26-0.033,0.392-0.097L18.871,253.519z"/>
	<path fill="#203364" d="M40.672,261.081c0-1.548-0.782-3.001-2.06-3.862c0.792-0.811,1.347-1.815,1.612-2.922
		c0.108-0.453-0.172-0.909-0.625-1.018c-0.064-0.015-0.131-0.023-0.196-0.023c-0.393,0-0.729,0.266-0.821,0.647
		c-0.248,1.039-0.854,1.959-1.709,2.605c-0.284-0.053-0.57-0.079-0.853-0.079c-0.538,0-1.081,0.097-1.613,0.287
		c-0.212,0.078-0.381,0.233-0.476,0.438c-0.094,0.205-0.104,0.434-0.025,0.646c0.122,0.331,0.439,0.553,0.792,0.553
		c0.1,0,0.198-0.018,0.29-0.052c0.342-0.121,0.689-0.184,1.032-0.184c0.266,0,0.535,0.037,0.801,0.109
		c1.272,0.356,2.162,1.53,2.162,2.854c0,1.194-0.724,2.272-1.817,2.733c-0.313-0.397-0.672-0.756-1.069-1.066
		c-0.149-0.117-0.329-0.179-0.52-0.179c-0.262,0-0.505,0.118-0.665,0.324c-0.287,0.366-0.222,0.898,0.145,1.185
		c1.111,0.869,1.774,2.229,1.774,3.64c0,2.547-2.072,4.618-4.619,4.618c-0.977,0-1.909-0.301-2.699-0.871
		c-0.569-0.41-1.046-0.955-1.378-1.575c-0.146-0.275-0.433-0.446-0.745-0.446c-0.138,0-0.275,0.034-0.397,0.1
		c-0.41,0.219-0.565,0.731-0.347,1.143c0.373,0.699,0.89,1.336,1.498,1.852c-0.222,1.564-1.6,2.773-3.191,2.773
		c-1.679,0-3.12-1.358-3.218-3.031c0.013-0.313,0.009-0.629,0.006-0.934l-0.002-0.201c0-0.467-0.378-0.845-0.844-0.845h-0.011
		c-0.465,0-0.844,0.378-0.844,0.843l-0.002,0.21c-0.003,0.304-0.006,0.617,0.006,0.927c-0.098,1.673-1.539,3.031-3.218,3.031
		c-1.591,0-2.97-1.208-3.191-2.773c0.608-0.515,1.125-1.152,1.499-1.852c0.219-0.411,0.063-0.924-0.347-1.143
		c-0.122-0.065-0.259-0.1-0.397-0.1c-0.313,0-0.598,0.171-0.746,0.446c-0.331,0.62-0.808,1.165-1.379,1.576
		c-0.789,0.569-1.722,0.87-2.698,0.87c-2.546,0-4.619-2.072-4.619-4.618c0-0.864,0.241-1.708,0.695-2.438
		c0.006-0.009,0.012-0.018,0.018-0.027c0.284-0.449,0.641-0.845,1.061-1.174c0.178-0.139,0.291-0.338,0.318-0.563
		c0.028-0.223-0.034-0.444-0.173-0.622c-0.161-0.206-0.403-0.324-0.665-0.324c-0.19,0-0.37,0.062-0.52,0.179
		c-0.396,0.311-0.755,0.668-1.068,1.066c-0.759-0.322-1.368-0.959-1.646-1.733c-0.12-0.335-0.439-0.56-0.795-0.56
		c-0.097,0-0.193,0.017-0.285,0.05c-0.212,0.076-0.382,0.229-0.479,0.435c-0.096,0.203-0.107,0.433-0.031,0.645
		c0.412,1.148,1.269,2.094,2.373,2.625c-0.327,0.775-0.492,1.596-0.492,2.442c0,3.478,2.829,6.308,6.307,6.308
		c0.893,0,1.75-0.182,2.553-0.539c0.617,2.053,2.551,3.514,4.707,3.514c1.628,0,3.152-0.815,4.063-2.15
		c0.911,1.335,2.434,2.15,4.063,2.15c2.155,0,4.09-1.461,4.706-3.514c0.803,0.357,1.661,0.539,2.554,0.539
		c3.478,0,6.308-2.83,6.308-6.308c0-0.847-0.165-1.667-0.491-2.441C39.619,264.508,40.672,262.852,40.672,261.081z"/>
</g>
</svg>
