<?xml version="1.0" encoding="utf-8"?>
<!-- Generator: Adobe Illustrator 16.0.0, SVG Export Plug-In . SVG Version: 6.00 Build 0)  -->
<!DOCTYPE svg PUBLIC "-//W3C//DTD SVG 1.1//EN" "http://www.w3.org/Graphics/SVG/1.1/DTD/svg11.dtd">
<svg version="1.1" id="Layer_1" xmlns="http://www.w3.org/2000/svg" xmlns:xlink="http://www.w3.org/1999/xlink" x="0px" y="0px"
	 width="42px" height="42px" viewBox="0 235 42 42" enable-background="new 0 235 42 42" xml:space="preserve">
<path fill="#203364" d="M21.521,277c-0.52,0-1.021-0.189-1.412-0.533l-0.548-0.484l-0.092,0.052
	c-0.333,0.19-0.708,0.291-1.086,0.291c-1.102,0-2.033-0.825-2.166-1.919l-0.014-0.114l-0.113-0.014
	c-0.978-0.122-1.775-0.919-1.896-1.897l-0.015-0.113l-0.113-0.014c-0.978-0.122-1.775-0.92-1.896-1.896l-0.015-0.113l-0.113-0.015
	c-1.019-0.126-1.82-0.959-1.906-1.981l-0.007-0.074l-1.903-1.143l-0.148,0.522H6.701L0,265.318v-14.124h2.312l3.352,1.954l1.76-0.44
	v-0.216l-0.061-0.044c-1.229-0.903-1.964-2.351-1.964-3.871v-1.35c0-1.312,0.519-2.536,1.46-3.448
	c0.87-0.845,2.017-1.326,3.229-1.355l0.215-0.005l-0.692-1.65l3.656-3.657l2.12,1.38l0.077-0.042
	c0.727-0.398,1.497-0.718,2.291-0.951l0.085-0.024L18.362,235h5.276l0.523,2.474l0.084,0.025c0.793,0.232,1.564,0.552,2.292,0.95
	l0.076,0.042l2.12-1.38l3.66,3.659l-0.704,1.65l0.254,0.004c2.568,0.078,4.658,2.309,4.658,4.974v1.18
	c0,1.521-0.735,2.968-1.966,3.872l-0.06,0.044v0.215l2.78,0.696c0.233,0.059,0.462,0.148,0.718,0.281l0.067,0.036l2.246-1.182
	L42,252.543v9.998l-12.149,6.074l0.003,0.094c0.001,0.02,0.001,0.04,0.001,0.061c0,1.074-0.839,2.014-1.91,2.139l-0.116,0.014
	l-0.013,0.117c-0.104,0.977-0.918,1.791-1.895,1.897l-0.117,0.013l-0.013,0.117c-0.105,0.975-0.92,1.789-1.895,1.895l-0.117,0.013
	l-0.013,0.118c-0.114,1.07-1.046,1.908-2.121,1.908H21.521L21.521,277z M21.429,274.096c-0.09,0.15-0.195,0.285-0.313,0.402
	l-0.444,0.445l0.439,0.387c0.113,0.1,0.259,0.155,0.41,0.155h0.124c0.343,0,0.622-0.278,0.622-0.621
	c0-0.185-0.082-0.358-0.224-0.478l-0.526-0.438L21.429,274.096z M19.568,272.277c-0.177,0-0.351,0.071-0.477,0.197l-1.186,1.186
	c-0.126,0.125-0.197,0.299-0.197,0.477c0,0.371,0.302,0.674,0.674,0.674c0.178,0,0.352-0.072,0.477-0.197l1.187-1.186
	c0.125-0.126,0.197-0.3,0.197-0.477C20.243,272.579,19.94,272.277,19.568,272.277z M13.496,264.689c1.102,0,2.033,0.825,2.165,1.919
	l0.014,0.114l0.114,0.014c0.977,0.122,1.774,0.92,1.896,1.896l0.014,0.113l0.113,0.015c0.978,0.122,1.775,0.919,1.897,1.896
	l0.014,0.114l0.113,0.014c0.715,0.088,1.339,0.525,1.67,1.168l0.011,0.02l1.495,1.25c0.186,0.154,0.419,0.238,0.657,0.238
	c0.343,0,0.621-0.278,0.621-0.621c0-0.186-0.081-0.358-0.223-0.477l-3.617-3.014l0.971-1.164l3.729,3.107
	c0.111,0.093,0.252,0.145,0.396,0.145h0.147c0.343,0,0.621-0.279,0.621-0.622c0-0.185-0.081-0.358-0.223-0.478l-3.616-3.013
	l0.97-1.165l3.723,3.104c0.115,0.096,0.261,0.148,0.411,0.148h0.117c0.354,0,0.643-0.288,0.643-0.643
	c0-0.182-0.077-0.356-0.213-0.479l-5.701-5.131c-0.229-0.206-0.544-0.324-0.865-0.324c-0.235,0-0.461,0.061-0.655,0.178
	l-2.513,1.506c-0.362,0.219-0.779,0.335-1.205,0.335c-1.292,0-2.343-1.052-2.343-2.343v-0.134c0-0.893,0.496-1.695,1.294-2.096
	l3.188-1.595l-0.801-0.256c-0.675-0.215-1.378-0.324-2.091-0.324c-0.502,0-1.002,0.055-1.486,0.162l-4.508,1.003l-1.786,6.251
	l1.951,1.172l0.081-0.097c0.025-0.03,0.05-0.058,0.074-0.082l1.187-1.187C12.355,264.923,12.92,264.689,13.496,264.689z
	 M17.545,270.252c-0.178,0-0.352,0.072-0.477,0.197l-1.187,1.187c-0.125,0.126-0.197,0.3-0.197,0.477
	c0,0.372,0.303,0.675,0.674,0.675c0.178,0,0.352-0.072,0.477-0.197l1.187-1.187c0.125-0.126,0.197-0.3,0.197-0.478
	C18.219,270.555,17.916,270.252,17.545,270.252z M15.521,268.229c-0.178,0-0.352,0.072-0.477,0.197l-1.187,1.186
	c-0.125,0.125-0.197,0.299-0.197,0.477c0,0.372,0.303,0.674,0.674,0.674c0.178,0,0.352-0.071,0.478-0.197l1.186-1.186
	c0.125-0.125,0.197-0.299,0.197-0.477C16.194,268.53,15.892,268.229,15.521,268.229z M13.496,266.204
	c-0.178,0-0.352,0.071-0.477,0.196l-1.187,1.188c-0.125,0.125-0.197,0.299-0.197,0.477c0,0.371,0.303,0.674,0.674,0.674
	c0.178,0,0.352-0.072,0.478-0.197l1.186-1.187c0.125-0.126,0.197-0.3,0.197-0.477C14.17,266.506,13.867,266.204,13.496,266.204z
	 M21.566,261.315c0.693,0,1.358,0.255,1.873,0.72l5.78,5.203l11.266-5.634V254.2l-12.552,6.606l-1.063-0.027l-4.246-1.213
	c-0.249-0.072-0.509-0.108-0.772-0.108c-0.442,0-0.882,0.103-1.271,0.298l-3.764,1.881c-0.282,0.143-0.458,0.426-0.458,0.741v0.134
	c0,0.457,0.372,0.828,0.828,0.828c0.15,0,0.297-0.041,0.425-0.117l2.514-1.508C20.562,261.453,21.06,261.315,21.566,261.315z
	 M5.71,265.625l1.226,0.408l2.51-8.785l0.001-0.139l-1.402-0.818L5.71,265.625z M1.515,264.227l2.755,0.918l2.412-9.647l-4.78-2.789
	H1.515V264.227z M16.436,256.594c0.872,0,1.731,0.133,2.553,0.396l3.039,0.971l0.023,0.003c0.385,0.017,0.699,0.063,0.991,0.146
	l4.132,1.18l0.491,0.002v-2.533c0-0.893-0.604-1.667-1.47-1.884l-3.928-0.981l-0.002-2.247l0.378-0.219
	c1.017-0.588,1.647-1.68,1.647-2.848v-1.18c0-1.854-1.431-3.406-3.188-3.459c-0.043-0.002-0.085-0.002-0.126-0.002
	c-0.845,0-1.649,0.33-2.268,0.929c-0.645,0.625-1,1.464-1,2.362v1.35c0,1.169,0.631,2.26,1.646,2.847l0.378,0.218v2.249
	l-3.928,0.981c-0.824,0.207-1.428,0.943-1.468,1.791l-0.01,0.192l0.294-0.065C15.213,256.66,15.823,256.594,16.436,256.594z
	 M28.296,254.45l0.141,0.178c0.479,0.607,0.743,1.363,0.743,2.129v1.681l7.108-3.741l-3.224-0.806l-0.003-2.247l0.379-0.219
	c1.016-0.588,1.647-1.68,1.647-2.848v-1.18c0-1.854-1.431-3.406-3.189-3.459c-0.043-0.002-0.085-0.002-0.127-0.002
	c-0.843,0-1.648,0.33-2.267,0.929c-0.645,0.625-1,1.464-1,2.362v1.35c0,1.169,0.631,2.26,1.646,2.847l0.378,0.218v2.249
	L28.296,254.45z M10.935,257.611l1.886-0.42v-0.434c0-0.767,0.265-1.523,0.743-2.129l0.142-0.178l-2.233-0.558l-0.003-2.247
	l0.379-0.219c1.017-0.588,1.647-1.68,1.647-2.848v-1.18c0-1.854-1.431-3.406-3.189-3.459c-0.043-0.002-0.084-0.002-0.126-0.002
	c-0.844,0-1.649,0.33-2.267,0.929c-0.646,0.625-1,1.464-1,2.362v1.35c0,1.169,0.631,2.26,1.646,2.847l0.379,0.218v2.249l-1.4,0.35
	l3.425,1.998L10.935,257.611z M21.001,242.422c0.049,0,0.098,0,0.146,0.002c2.568,0.078,4.658,2.309,4.658,4.974v1.18
	c0,1.52-0.734,2.968-1.965,3.872l-0.06,0.044v0.215l2.607,0.653l2.626-0.653v-0.216l-0.06-0.044
	c-1.23-0.904-1.965-2.351-1.965-3.871v-1.35c0-0.708,0.152-1.392,0.454-2.033l0.031-0.067l-0.035-0.065
	c-1.292-2.359-3.759-3.824-6.44-3.824c-2.708,0-5.187,1.486-6.469,3.879l-0.035,0.065l0.031,0.067c0.32,0.68,0.482,1.403,0.482,2.15
	v1.179c0,1.521-0.734,2.968-1.965,3.872l-0.061,0.044v0.215l2.608,0.653l2.626-0.653v-0.216l-0.061-0.044
	c-1.229-0.903-1.964-2.351-1.964-3.871v-1.35c0-1.311,0.519-2.536,1.459-3.449C18.555,242.904,19.744,242.422,21.001,242.422z
	 M11.398,241.12l0.723,1.724l0.051,0.024c0.451,0.212,0.866,0.495,1.234,0.839l0.126,0.118l0.096-0.144
	c1.629-2.441,4.453-3.958,7.372-3.958c2.898,0,5.713,1.501,7.346,3.919l0.094,0.14l0.126-0.114c0.369-0.335,0.79-0.61,1.251-0.818
	l0.052-0.023l0.73-1.71l-2.066-2.067l-1.885,1.227l-0.408-0.25c-0.902-0.554-1.878-0.958-2.897-1.202l-0.466-0.111l-0.465-2.199
	H19.59l-0.466,2.199l-0.467,0.112c-1.019,0.244-1.994,0.648-2.897,1.202l-0.407,0.25l-1.885-1.227L11.398,241.12z"/>
</svg>
