<?xml version="1.0" encoding="utf-8"?>
<!-- Generator: Adobe Illustrator 16.0.0, SVG Export Plug-In . SVG Version: 6.00 Build 0)  -->
<!DOCTYPE svg PUBLIC "-//W3C//DTD SVG 1.1//EN" "http://www.w3.org/Graphics/SVG/1.1/DTD/svg11.dtd">
<svg version="1.1" id="Capa_1" xmlns="http://www.w3.org/2000/svg" xmlns:xlink="http://www.w3.org/1999/xlink" x="0px" y="0px"
	 width="42px" height="42px" viewBox="0 235 42 42" enable-background="new 0 235 42 42" xml:space="preserve">
<path fill="#203364" d="M8.298,272.395c-0.102-0.001-0.206-0.016-0.308-0.045l-5.036-0.967c-0.593-0.114-0.983-0.689-0.869-1.283
	c0.099-0.514,0.55-0.888,1.074-0.888c0.069,0,0.139,0.007,0.208,0.02l1.599,0.308l-0.255-0.314
	c-1.459-1.804-2.604-3.824-3.401-6.006c-2.386-6.522-1.487-13.507,2.466-19.163c3.958-5.661,10.355-9.041,17.114-9.041
	c1.467,0,2.954,0.159,4.42,0.471c0.286,0.061,0.531,0.23,0.69,0.475c0.159,0.246,0.213,0.538,0.152,0.824
	c-0.107,0.502-0.558,0.867-1.07,0.867c-0.076,0-0.153-0.008-0.229-0.024c-1.313-0.28-2.646-0.422-3.96-0.422
	c-6.038,0-11.757,3.024-15.298,8.089c-3.55,5.079-4.362,11.338-2.229,17.172c0.715,1.957,1.743,3.77,3.054,5.387l0.336,0.415
	l-0.226-1.598c-0.041-0.29,0.033-0.577,0.209-0.812s0.432-0.385,0.722-0.426c0.052-0.008,0.105-0.012,0.157-0.012
	c0.54,0,1.005,0.405,1.081,0.942l0.676,4.774c0.044,0.313-0.052,0.633-0.264,0.878C8.903,272.256,8.606,272.395,8.298,272.395
	L8.298,272.395z M21.047,276.984c-1.455,0-2.915-0.153-4.339-0.457c-0.591-0.127-0.969-0.709-0.843-1.3
	c0.107-0.503,0.557-0.866,1.07-0.866c0.077,0,0.154,0.008,0.23,0.023c1.273,0.271,2.58,0.41,3.882,0.41
	c2.202,0,4.374-0.387,6.453-1.15c9.705-3.563,14.708-14.373,11.151-24.098c-0.716-1.957-1.743-3.77-3.054-5.387l-0.336-0.415
	l0.226,1.598c0.045,0.314-0.049,0.632-0.258,0.872c-0.208,0.239-0.51,0.377-0.827,0.377c-0.542,0-1.007-0.405-1.083-0.942
	l-0.676-4.775c-0.045-0.314,0.051-0.633,0.262-0.876c0.209-0.241,0.507-0.378,0.816-0.378c0.102,0,0.204,0.015,0.306,0.043
	l5.036,0.968c0.288,0.055,0.536,0.219,0.7,0.461s0.225,0.534,0.169,0.821c-0.099,0.515-0.551,0.889-1.074,0.889
	c-0.069,0-0.139-0.007-0.208-0.02l-1.599-0.307l0.255,0.314c1.459,1.803,2.604,3.823,3.401,6.005
	c1.926,5.264,1.691,10.959-0.659,16.039c-2.352,5.079-6.539,8.938-11.794,10.867C25.933,276.553,23.508,276.984,21.047,276.984
	L21.047,276.984L21.047,276.984z M21.01,268.83c-7.023,0-12.737-5.723-12.737-12.758c0-7.035,5.713-12.758,12.737-12.758
	c7.023,0,12.737,5.723,12.737,12.758C33.747,263.107,28.033,268.83,21.01,268.83z M21.01,245.504
	c-5.815,0-10.547,4.741-10.547,10.568c0,5.828,4.731,10.569,10.547,10.569c5.815,0,10.546-4.741,10.546-10.569
	C31.556,250.245,26.825,245.504,21.01,245.504z M21.009,264.148c-0.604,0-1.095-0.49-1.095-1.095v-1.186h-0.148
	c-0.984,0-1.719-0.22-2.459-0.733c-0.496-0.346-0.619-1.029-0.274-1.525c0.205-0.294,0.541-0.47,0.9-0.47
	c0.223,0,0.439,0.067,0.624,0.196c0.313,0.217,0.672,0.339,1.011,0.342h2.749c0.689,0,1.251-0.563,1.251-1.255
	s-0.562-1.255-1.251-1.255h-2.613c-1.897,0-3.441-1.546-3.441-3.446c0-1.932,1.54-3.446,3.505-3.446h0.148v-1.185
	c0-0.604,0.491-1.095,1.095-1.095c0.604,0,1.096,0.491,1.096,1.095v1.184l0.146,0.001c1.073,0.013,2.119,0.48,2.871,1.284
	c0.199,0.213,0.305,0.492,0.295,0.785c-0.01,0.292-0.133,0.563-0.347,0.763c-0.203,0.19-0.47,0.295-0.748,0.295
	c-0.307,0-0.591-0.124-0.8-0.347c-0.346-0.37-0.819-0.585-1.299-0.59H19.72c-0.711,0-1.268,0.551-1.268,1.255
	c0,0.692,0.561,1.255,1.251,1.255h2.613c1.897,0,3.441,1.546,3.441,3.446c0,1.933-1.54,3.445-3.505,3.445h-0.147v1.186
	C22.105,263.657,21.614,264.148,21.009,264.148L21.009,264.148z"/>
</svg>
