<?xml version="1.0" encoding="utf-8"?>
<!-- Generator: Adobe Illustrator 16.0.0, SVG Export Plug-In . SVG Version: 6.00 Build 0)  -->
<!DOCTYPE svg PUBLIC "-//W3C//DTD SVG 1.1//EN" "http://www.w3.org/Graphics/SVG/1.1/DTD/svg11.dtd">
<svg version="1.1" id="Capa_1" xmlns="http://www.w3.org/2000/svg" xmlns:xlink="http://www.w3.org/1999/xlink" x="0px" y="0px"
	 width="42px" height="42px" viewBox="0 235 42 42" enable-background="new 0 235 42 42" xml:space="preserve">
<path fill="#203364" d="M23.5,272.483L23.5,272.483c7.71,0,13.982-6.272,13.982-13.981c0-7.71-6.272-13.982-13.982-13.982
	c-7.71,0-13.982,6.272-13.982,13.982c0.004,3.732,1.46,7.242,4.1,9.882S19.767,272.479,23.5,272.483z M12.862,259.343
	c0.464,0,0.841-0.377,0.841-0.841s-0.377-0.842-0.841-0.842h-1.617c0.423-6.139,5.274-10.99,11.414-11.413v1.616
	c0,0.464,0.377,0.842,0.841,0.842s0.841-0.378,0.841-0.842v-1.616c6.14,0.423,10.991,5.274,11.414,11.414h-2.242
	c-0.464,0-0.841,0.377-0.841,0.841s0.377,0.841,0.841,0.841h2.242c-0.423,6.14-5.274,10.99-11.414,11.414v-1.617
	c0-0.464-0.377-0.841-0.841-0.841s-0.841,0.377-0.841,0.841v1.617c-6.139-0.424-10.991-5.274-11.414-11.414H12.862L12.862,259.343z
	 M39.551,249.664c-0.176-0.306-0.362-0.607-0.555-0.901l1.571-1.57c0.362-0.362,0.362-0.952,0-1.315l-3.91-3.909
	c-0.176-0.176-0.409-0.272-0.658-0.272s-0.482,0.097-0.657,0.272l-1.573,1.567c-2.707-1.785-5.835-2.81-9.074-2.971v-3.703h4.606
	c0.513,0,0.93-0.417,0.93-0.93c0-0.514-0.417-0.931-0.93-0.931H18.229c-0.513,0-0.93,0.417-0.93,0.931c0,0.513,0.417,0.93,0.93,0.93
	h4.605v3.71c-2.989,0.151-5.916,1.046-8.48,2.592c-2.59,1.563-4.764,3.763-6.296,6.37H4.39c-0.513,0-0.93,0.417-0.93,0.93
	s0.417,0.93,0.93,0.93h4.152c0.032,0,0.059-0.005,0.079-0.011c0.324-0.006,0.623-0.184,0.786-0.469
	c2.874-5.253,8.382-8.516,14.375-8.516c2.725,0,5.437,0.696,7.843,2.012c7.918,4.333,10.835,14.299,6.503,22.218
	c-2.874,5.252-8.382,8.515-14.375,8.516c-2.724,0-5.436-0.696-7.842-2.013c-2.75-1.504-4.998-3.753-6.504-6.505
	c-0.159-0.283-0.455-0.461-0.783-0.471c-0.019-0.005-0.046-0.011-0.08-0.011H4.39c-0.513,0-0.93,0.417-0.93,0.93
	s0.417,0.931,0.93,0.931h3.669c1.626,2.768,3.952,5.059,6.734,6.63c2.739,1.547,5.85,2.365,8.995,2.365c0,0,0,0,0.001,0
	c3.178,0,6.323-0.846,9.092-2.444c4.215-2.434,7.23-6.362,8.49-11.064C42.631,258.789,41.984,253.879,39.551,249.664z
	 M35.285,244.654l0.714-0.714l2.595,2.595l-0.715,0.715C37.103,246.302,36.232,245.431,35.285,244.654z M7.396,258.767
	c0-0.513-0.417-0.931-0.93-0.931H0.93c-0.513,0-0.93,0.418-0.93,0.931s0.417,0.93,0.93,0.93h5.536
	C6.979,259.696,7.396,259.279,7.396,258.767z M2.314,255.545h4.844c0.513,0,0.93-0.418,0.93-0.931s-0.417-0.93-0.93-0.93H2.314
	c-0.513,0-0.93,0.417-0.93,0.93S1.801,255.545,2.314,255.545z M8.088,262.918c0-0.513-0.417-0.93-0.93-0.93H2.314
	c-0.513,0-0.93,0.417-0.93,0.93s0.417,0.93,0.93,0.93h4.844C7.67,263.848,8.088,263.431,8.088,262.918z M21.654,262.851
	c0.159,0.159,0.37,0.246,0.595,0.246s0.436-0.087,0.595-0.246l8.701-8.7c0.156-0.162,0.24-0.375,0.236-0.6s-0.095-0.434-0.256-0.59
	c-0.158-0.152-0.365-0.236-0.584-0.236s-0.427,0.084-0.587,0.239l-8.104,8.103l-3.574-3.573c-0.158-0.152-0.365-0.236-0.584-0.236
	c-0.23,0-0.445,0.091-0.605,0.257c-0.316,0.328-0.316,0.841,0.003,1.172L21.654,262.851z"/>
</svg>
