<svg width="58" height="58" viewBox="0 0 58 58" fill="none" xmlns="http://www.w3.org/2000/svg">
<path d="M29 57C13.5417 57 1 44.4583 1 29C1 13.5417 13.5417 1 29 1C44.4583 1 57 13.5417 57 29C57 44.4583 44.4583 57 29 57Z" stroke="white" stroke-width="1.69" stroke-miterlimit="10"/>
<path d="M37.225 26.7249C35.825 27.1915 34.7167 28.2415 34.3083 29.6415C34.25 29.8749 33.9583 29.8749 33.8417 29.6415C33.375 28.2415 32.325 27.1332 30.925 26.7249C30.6917 26.6665 30.6917 26.3749 30.925 26.2582C32.325 25.7915 33.4333 24.7415 33.8417 23.3415C33.9 23.1082 34.1917 23.1082 34.3083 23.3415C34.775 24.7415 35.825 25.8499 37.225 26.2582C37.4583 26.3749 37.4583 26.7249 37.225 26.7249Z" fill="white"/>
<path d="M23.1063 32.3249C24.4594 32.3249 25.5562 31.2279 25.5562 29.8748C25.5562 28.5218 24.4594 27.4248 23.1063 27.4248C21.7533 27.4248 20.6562 28.5218 20.6562 29.8748C20.6562 31.2279 21.7533 32.3249 23.1063 32.3249Z" fill="white"/>
<path d="M45.2742 32.3249C46.6273 32.3249 47.7242 31.2279 47.7242 29.8748C47.7242 28.5218 46.6273 27.4248 45.2742 27.4248C43.9211 27.4248 42.8242 28.5218 42.8242 29.8748C42.8242 31.2279 43.9211 32.3249 45.2742 32.3249Z" fill="white"/>
<path d="M12.782 32.3249C14.1351 32.3249 15.232 31.2279 15.232 29.8748C15.232 28.5218 14.1351 27.4248 12.782 27.4248C11.4289 27.4248 10.332 28.5218 10.332 29.8748C10.332 31.2279 11.4289 32.3249 12.782 32.3249Z" fill="white"/>
</svg>
