<svg width="15" height="15" viewBox="0 0 15 15" fill="none" xmlns="http://www.w3.org/2000/svg">
<g clip-path="url(#clip0_239_4246)">
<path d="M9.92199 8.02623H8.50012L7.77196 8.64666C7.53075 8.8537 7.22331 8.9674 6.90543 8.96713C6.54969 8.96713 6.19504 8.82522 5.93364 8.54631C5.7384 8.33795 5.75754 8.00819 5.97602 7.82416L7.63168 6.35936C7.8085 6.21022 8.01843 6.10552 8.24394 6.05401C8.46945 6.00249 8.70401 6.00565 8.92805 6.06322L9.52004 6.21553C10.1711 6.38287 10.8407 6.46764 11.5131 6.46764H14.4884V11.1981H12.7384C12.7384 11.1981 11.6801 12.4756 9.08405 12.0591" stroke="white" stroke-width="0.8" stroke-miterlimit="10" stroke-linecap="round" stroke-linejoin="round"/>
<path d="M7.29688 6.55811H1.30859V10.8426H1.86039C2.32551 10.8426 2.76711 11.0474 3.06734 11.4026L4.86766 13.5298L5.31136 14.0572" stroke="white" stroke-width="0.8" stroke-miterlimit="10" stroke-linecap="round" stroke-linejoin="round"/>
<path d="M4.86523 13.5317L5.28625 14.0293C5.56843 14.3615 6.06664 14.402 6.39914 14.1195C6.73136 13.8373 6.77183 13.3391 6.48937 13.0069L6.17582 12.6366L6.53761 13.0587C6.82007 13.3909 7.31827 13.4314 7.6505 13.1492C7.98272 12.8667 8.02319 12.3685 7.741 12.0363L7.37895 11.6143" stroke="white" stroke-width="0.8" stroke-miterlimit="10" stroke-linecap="round" stroke-linejoin="round"/>
<path d="M8.5823 10.5918L9.02609 11.1131C9.30855 11.4453 9.26809 11.9435 8.93586 12.226C8.60336 12.5082 8.10516 12.4677 7.82297 12.1355L7.37891 11.6142" stroke="white" stroke-width="0.8" stroke-miterlimit="10" stroke-linecap="round" stroke-linejoin="round"/>
<path d="M8.58187 10.592L9.13285 11.2406C9.41531 11.5728 9.91352 11.6133 10.2457 11.3311C10.578 11.0487 10.6184 10.5505 10.3363 10.2182L9.785 9.56963M10.3538 10.239L8.50066 8.02635M5.95195 1.12793H12.4166V6.34047M5.95195 1.12793V3.70098H3.37891M5.95195 1.12793L3.37891 3.70098M3.37891 6.43098V3.70098M7.59258 2.76855H10.7759M7.59258 4.40918H10.7759" stroke="white" stroke-width="0.8" stroke-miterlimit="10" stroke-linecap="round" stroke-linejoin="round"/>
</g>
<defs>
<clipPath id="clip0_239_4246">
<rect width="14" height="14" fill="white" transform="translate(0.898438 0.717773)"/>
</clipPath>
</defs>
</svg>