<svg width="56" height="56" viewBox="0 0 56 56" fill="none" xmlns="http://www.w3.org/2000/svg">
<path d="M28.0032 55.0358C13.0779 55.0358 0.96875 42.9266 0.96875 28.0013C0.96875 13.076 13.0779 0.966797 28.0032 0.966797C42.9285 0.966797 55.0377 13.076 55.0377 28.0013C55.0377 42.9266 42.9285 55.0358 28.0032 55.0358Z" stroke="white" stroke-width="1.68966" stroke-miterlimit="10"/>
<path d="M24.5659 38.0257C26.2556 37.4625 27.6636 36.1671 28.2269 34.3648C28.2832 34.0268 28.6774 34.0268 28.7901 34.3648C29.3533 36.0544 30.6487 37.4625 32.451 38.0257C32.7889 38.082 32.7889 38.4763 32.451 38.5889C30.7614 39.1521 29.3533 40.4475 28.7901 42.2498C28.7338 42.5878 28.3395 42.5878 28.2269 42.2498C27.6636 40.5602 26.3682 39.1521 24.5659 38.5889C24.228 38.4763 24.228 38.0257 24.5659 38.0257Z" fill="white"/>
<path d="M20.5703 47.7695H36.2841" stroke="white" stroke-width="1.68966" stroke-miterlimit="10"/>
<path d="M23.4363 30.0293C20.7892 31.4937 17.0156 33.9718 17.0156 41.4063V45.7994" stroke="white" stroke-width="1.68966" stroke-miterlimit="10"/>
<path d="M39.2064 44.1667V41.3506C39.2064 32.3955 34.4191 30.5368 31.8283 29.3541C31.2087 29.0725 30.5892 28.7909 29.9133 28.5656L27.2662 27.5518C25.7455 26.9886 24.2811 26.3127 22.9294 25.5242C20.2823 24.0035 17.0156 21.3564 17.0156 14.5414V10.8242" stroke="white" stroke-width="1.68966" stroke-miterlimit="10"/>
<path d="M34.6508 7.44531H20.5703" stroke="white" stroke-width="1.68966" stroke-miterlimit="10"/>
<path d="M33.2969 25.917C35.8877 24.6216 39.2107 22.1435 39.2107 14.4837V9.18945" stroke="white" stroke-width="1.68966" stroke-miterlimit="10"/>
<path d="M22.9375 12.7383L25.4157 15.2165L22.9375 17.7509" stroke="white" stroke-width="1.59549" stroke-miterlimit="10"/>
<path d="M32.2276 20.2285H26.5391" stroke="white" stroke-width="1.59549" stroke-miterlimit="10"/>
</svg>
