<svg width="15" height="15" viewBox="0 0 15 15" fill="none" xmlns="http://www.w3.org/2000/svg">
<path d="M3.33268 8.78222L3.33252 8.78211L2.11081 7.90868C2.0752 7.88578 2.04451 7.85602 2.02052 7.82112C1.99592 7.78533 1.97889 7.74488 1.97048 7.70227C1.96207 7.65966 1.96246 7.61578 1.97163 7.57332C1.98079 7.53086 1.99854 7.49073 2.02377 7.45538C2.04901 7.42002 2.0812 7.3902 2.11838 7.36774C2.15555 7.34528 2.19693 7.33066 2.23996 7.32477C2.28299 7.31887 2.32678 7.32184 2.36862 7.33348C2.40943 7.34483 2.44756 7.3642 2.48078 7.39044L3.06782 7.80929C2.94728 7.10631 2.97504 6.38489 3.15044 5.69162C3.34666 4.9161 3.72215 4.19746 4.24672 3.59351C4.77129 2.98956 5.43028 2.51716 6.1707 2.21431C6.91111 1.91146 7.71227 1.78661 8.50972 1.84982C9.30717 1.91302 10.0787 2.16251 10.7621 2.57822C11.4456 2.99392 12.0219 3.56423 12.4448 4.24328C12.8677 4.92232 13.1253 5.69114 13.1969 6.48788C13.2685 7.28462 13.1521 8.08705 12.8571 8.83061L12.857 8.83073C12.8334 8.89004 12.7925 8.94089 12.7397 8.97669C12.6868 9.0125 12.6244 9.03161 12.5606 9.03154L12.5607 8.93154L12.5609 9.03154C12.5206 9.03164 12.4805 9.02407 12.443 9.00923L12.4429 9.00918C12.4039 8.99372 12.3684 8.97074 12.3383 8.94154C12.3083 8.91234 12.2843 8.8775 12.2677 8.83901C12.2511 8.80052 12.2423 8.75914 12.2417 8.71724C12.2411 8.67533 12.2488 8.63373 12.2644 8.59481M3.33268 8.78222L12.3572 8.63186M3.33268 8.78222C3.36679 8.80651 3.40535 8.82384 3.44616 8.83322M3.33268 8.78222L3.44616 8.83322M12.2644 8.59481L12.3572 8.63186M12.2644 8.59481C12.2643 8.59486 12.2643 8.59491 12.2643 8.59497L12.3572 8.63186M12.2644 8.59481C12.523 7.94313 12.6248 7.23981 12.5616 6.54155C12.4984 5.84324 12.272 5.16955 11.9006 4.57482C11.5293 3.9801 11.0233 3.48098 10.4236 3.11774C9.82381 2.7545 9.1471 2.5373 8.44799 2.48366C7.74888 2.43003 7.04695 2.54146 6.39882 2.80896C5.75069 3.07647 5.17451 3.49256 4.71674 4.02367C4.25898 4.55479 3.93245 5.18606 3.7635 5.86656C3.61287 6.47331 3.59126 7.10406 3.69906 7.71817M12.3572 8.63186C12.6217 7.96557 12.7258 7.24647 12.6612 6.53255C12.5966 5.81863 12.3652 5.12988 11.9855 4.52186C11.6058 3.91384 11.0885 3.40357 10.4754 3.03221C9.86221 2.66085 9.17037 2.43879 8.45564 2.38396C7.7409 2.32912 7.02328 2.44304 6.36067 2.71653C5.69805 2.99001 5.10899 3.4154 4.641 3.95839C4.173 4.50137 3.83918 5.14675 3.66645 5.84247C3.50462 6.49431 3.48845 7.17324 3.6184 7.83106L3.69906 7.71817M3.69906 7.71817L4.13174 7.11258M3.69906 7.71817C3.70701 7.76348 3.71567 7.8087 3.72504 7.85382L4.21318 7.17061C4.22992 7.14712 4.25111 7.12716 4.27556 7.11187C4.3 7.09658 4.32722 7.08625 4.35566 7.08148C4.3841 7.0767 4.4132 7.07758 4.4413 7.08405C4.4694 7.09052 4.49595 7.10247 4.51943 7.1192C4.54292 7.13593 4.56287 7.15713 4.57817 7.18157C4.59346 7.20602 4.60379 7.23324 4.60856 7.26168C4.61334 7.29012 4.61246 7.31922 4.60599 7.34732C4.59952 7.37542 4.58757 7.40197 4.57084 7.42545L4.13174 7.11258M4.13174 7.11258L4.21302 7.17049L4.13182 7.11247L4.13174 7.11258ZM3.44616 8.83322C3.48697 8.84261 3.52923 8.84385 3.57052 8.8369M3.44616 8.83322L3.57052 8.8369M3.57052 8.8369C3.61182 8.82994 3.65134 8.81492 3.68682 8.79268M3.57052 8.8369L3.68682 8.79268M3.68682 8.79268C3.72227 8.77047 3.75301 8.74149 3.77727 8.7074M3.68682 8.79268L3.77727 8.7074M3.77727 8.7074C3.77729 8.70737 3.77731 8.70734 3.77733 8.70731L3.77727 8.7074Z" fill="white" stroke="white" stroke-width="0.2"/>
<mask id="path-2-outside-1_239_4288" maskUnits="userSpaceOnUse" x="1.11523" y="3.09277" width="13" height="11" fill="black">
<rect fill="white" x="1.11523" y="3.09277" width="13" height="11"/>
<path d="M13.2665 9.7234C12.829 9.20605 12.1115 9.4434 11.7244 9.57027C11.4794 9.65121 10.892 9.8984 10.3134 10.1434C10.3483 9.95849 10.3246 9.7673 10.2456 9.59652C9.9328 8.8823 9.16061 9.01902 8.59623 9.11965C8.42209 9.15746 8.24494 9.17979 8.06686 9.18637C7.76518 9.18298 7.4674 9.11784 7.19186 8.99496C6.83402 8.84099 6.44707 8.76636 6.05764 8.77621C5.312 8.79001 4.57685 8.95445 3.89639 9.25965L3.77389 9.30996C2.7578 9.71465 2.3203 9.80652 2.3203 9.80652C2.27959 9.81464 2.24204 9.83417 2.21202 9.86284C2.182 9.8915 2.16076 9.92811 2.15077 9.9684C2.14311 10.0001 1.97139 10.734 2.45811 11.7654C2.87592 12.6404 3.36483 12.9762 3.70061 13.0976C3.73546 13.1101 3.7729 13.1135 3.80944 13.1076C3.84597 13.1017 3.88041 13.0866 3.90952 13.0637C3.90952 13.0637 4.18405 12.845 4.39405 12.7225C4.53295 12.6382 4.87092 12.5846 5.6978 12.8143C6.46283 13.0179 7.24919 13.1306 8.04061 13.1501C8.3488 13.1602 8.65648 13.118 8.95061 13.0254C9.81358 12.6973 11.9136 11.6036 12.7394 11.1551C13.1769 10.9167 13.4153 10.6596 13.47 10.3687C13.4878 10.2528 13.4787 10.1343 13.4434 10.0224C13.4081 9.91047 13.3476 9.80818 13.2665 9.7234ZM13.039 10.2889C13.0117 10.4365 12.8301 10.6082 12.5294 10.7723C11.8359 11.1518 9.65498 12.2948 8.79639 12.6175C8.19373 12.8428 6.6767 12.6328 5.81483 12.3987C5.47047 12.2906 5.11342 12.2281 4.7528 12.2128C4.54825 12.2029 4.34496 12.2498 4.16545 12.3484C4.0178 12.4381 3.84936 12.5606 3.74327 12.6393C3.41514 12.4753 3.10342 12.1034 2.85295 11.5762C2.6367 11.1495 2.53565 10.6737 2.55983 10.1959C3.0274 10.0594 3.4871 9.89727 3.93686 9.71027L4.06264 9.65887C4.69293 9.37413 5.37486 9.22151 6.06639 9.21043C6.40052 9.20176 6.73237 9.26791 7.03764 9.40402C7.35985 9.54531 7.70739 9.61973 8.0592 9.62277C8.26549 9.61639 8.47081 9.59187 8.6728 9.54949C9.27545 9.44012 9.68233 9.39965 9.8442 9.76824C9.87183 9.82495 9.88754 9.88673 9.89036 9.94975C9.89319 10.0128 9.88306 10.0757 9.86061 10.1346C9.79936 10.2856 9.64186 10.4234 9.39467 10.535C9.17592 10.6268 9.01186 10.6979 8.93967 10.7264C8.47592 10.9079 8.0767 10.8445 7.69061 10.7832L7.47842 10.7504C7.42041 10.7426 7.36166 10.7581 7.31509 10.7936C7.26853 10.8291 7.23797 10.8816 7.23014 10.9396C7.22231 10.9977 7.23784 11.0564 7.27333 11.103C7.30882 11.1495 7.36134 11.1801 7.41936 11.1879C7.48608 11.1967 7.55389 11.2076 7.6217 11.2186C8.04499 11.2853 8.52405 11.3607 9.09936 11.1365C9.16608 11.1103 9.29952 11.0545 9.4767 10.9779C9.50952 10.9648 9.54124 10.9517 9.57186 10.9375L9.85405 10.8171C10.5661 10.5109 11.5417 10.0909 11.8622 9.9859C12.3708 9.81855 12.7273 9.76715 12.9319 10.0056C13.0642 10.1609 13.0456 10.2571 13.039 10.2889ZM7.89842 4.31152V4.60137C7.82258 4.61864 7.74912 4.64508 7.67967 4.68012C7.56824 4.73623 7.47411 4.82149 7.40727 4.92684C7.34044 5.03219 7.30342 5.15368 7.30014 5.2784C7.28483 5.75855 7.71686 5.91934 8.03186 6.03637C8.39936 6.17309 8.51092 6.24309 8.49452 6.41809C8.4912 6.47764 8.47031 6.53487 8.43449 6.58256C8.39867 6.63025 8.34953 6.66627 8.29327 6.68605C8.18799 6.72623 8.07501 6.74217 7.96273 6.7327C7.85045 6.72324 7.74174 6.6886 7.64467 6.63137C7.62205 6.61356 7.59614 6.60038 7.56843 6.59258C7.54071 6.58478 7.51173 6.58252 7.48314 6.58592C7.45455 6.58932 7.42691 6.59832 7.4018 6.61241C7.37668 6.62649 7.35459 6.64539 7.33678 6.66801C7.31897 6.69063 7.30579 6.71654 7.29799 6.74425C7.2902 6.77197 7.28793 6.80095 7.29134 6.82954C7.29474 6.85813 7.30374 6.88577 7.31782 6.91088C7.33191 6.936 7.3508 6.95809 7.37342 6.9759C7.52747 7.08647 7.70925 7.15199 7.89842 7.16512V7.42652C7.89842 7.48454 7.92147 7.54018 7.96249 7.5812C8.00352 7.62223 8.05916 7.64527 8.11717 7.64527C8.17519 7.64527 8.23083 7.62223 8.27185 7.5812C8.31288 7.54018 8.33592 7.48454 8.33592 7.42652V7.1323C8.38168 7.12069 8.42662 7.10608 8.47045 7.08855C8.5989 7.03785 8.71054 6.95214 8.79271 6.84116C8.87488 6.73019 8.92428 6.59839 8.9353 6.46074C8.9878 5.92262 8.50764 5.74434 8.19045 5.62621C7.8503 5.50043 7.73764 5.4348 7.74202 5.29262C7.74315 5.24474 7.75769 5.19814 7.78398 5.15812C7.81028 5.1181 7.84727 5.08625 7.89077 5.06621C7.99166 5.02244 8.10185 5.00443 8.21144 5.01378C8.32102 5.02314 8.42656 5.05957 8.51858 5.1198C8.54293 5.13603 8.57028 5.14721 8.59903 5.15268C8.62778 5.15815 8.65733 5.15779 8.68593 5.15164C8.71454 5.14548 8.74162 5.13364 8.76557 5.11683C8.78952 5.10002 8.80986 5.07858 8.82537 5.05377C8.84089 5.02896 8.85127 5.00129 8.8559 4.9724C8.86053 4.9435 8.85931 4.91398 8.85233 4.88556C8.84534 4.85715 8.83273 4.83042 8.81523 4.80697C8.79773 4.78351 8.7757 4.76381 8.75045 4.74902C8.62378 4.66996 8.48302 4.61611 8.33592 4.59043V4.31152C8.33592 4.25351 8.31288 4.19787 8.27185 4.15684C8.23083 4.11582 8.17519 4.09277 8.11717 4.09277C8.05916 4.09277 8.00352 4.11582 7.96249 4.15684C7.92147 4.19787 7.89842 4.25351 7.89842 4.31152Z"/>
</mask>
<path d="M13.2665 9.7234C12.829 9.20605 12.1115 9.4434 11.7244 9.57027C11.4794 9.65121 10.892 9.8984 10.3134 10.1434C10.3483 9.95849 10.3246 9.7673 10.2456 9.59652C9.9328 8.8823 9.16061 9.01902 8.59623 9.11965C8.42209 9.15746 8.24494 9.17979 8.06686 9.18637C7.76518 9.18298 7.4674 9.11784 7.19186 8.99496C6.83402 8.84099 6.44707 8.76636 6.05764 8.77621C5.312 8.79001 4.57685 8.95445 3.89639 9.25965L3.77389 9.30996C2.7578 9.71465 2.3203 9.80652 2.3203 9.80652C2.27959 9.81464 2.24204 9.83417 2.21202 9.86284C2.182 9.8915 2.16076 9.92811 2.15077 9.9684C2.14311 10.0001 1.97139 10.734 2.45811 11.7654C2.87592 12.6404 3.36483 12.9762 3.70061 13.0976C3.73546 13.1101 3.7729 13.1135 3.80944 13.1076C3.84597 13.1017 3.88041 13.0866 3.90952 13.0637C3.90952 13.0637 4.18405 12.845 4.39405 12.7225C4.53295 12.6382 4.87092 12.5846 5.6978 12.8143C6.46283 13.0179 7.24919 13.1306 8.04061 13.1501C8.3488 13.1602 8.65648 13.118 8.95061 13.0254C9.81358 12.6973 11.9136 11.6036 12.7394 11.1551C13.1769 10.9167 13.4153 10.6596 13.47 10.3687C13.4878 10.2528 13.4787 10.1343 13.4434 10.0224C13.4081 9.91047 13.3476 9.80818 13.2665 9.7234ZM13.039 10.2889C13.0117 10.4365 12.8301 10.6082 12.5294 10.7723C11.8359 11.1518 9.65498 12.2948 8.79639 12.6175C8.19373 12.8428 6.6767 12.6328 5.81483 12.3987C5.47047 12.2906 5.11342 12.2281 4.7528 12.2128C4.54825 12.2029 4.34496 12.2498 4.16545 12.3484C4.0178 12.4381 3.84936 12.5606 3.74327 12.6393C3.41514 12.4753 3.10342 12.1034 2.85295 11.5762C2.6367 11.1495 2.53565 10.6737 2.55983 10.1959C3.0274 10.0594 3.4871 9.89727 3.93686 9.71027L4.06264 9.65887C4.69293 9.37413 5.37486 9.22151 6.06639 9.21043C6.40052 9.20176 6.73237 9.26791 7.03764 9.40402C7.35985 9.54531 7.70739 9.61973 8.0592 9.62277C8.26549 9.61639 8.47081 9.59187 8.6728 9.54949C9.27545 9.44012 9.68233 9.39965 9.8442 9.76824C9.87183 9.82495 9.88754 9.88673 9.89036 9.94975C9.89319 10.0128 9.88306 10.0757 9.86061 10.1346C9.79936 10.2856 9.64186 10.4234 9.39467 10.535C9.17592 10.6268 9.01186 10.6979 8.93967 10.7264C8.47592 10.9079 8.0767 10.8445 7.69061 10.7832L7.47842 10.7504C7.42041 10.7426 7.36166 10.7581 7.31509 10.7936C7.26853 10.8291 7.23797 10.8816 7.23014 10.9396C7.22231 10.9977 7.23784 11.0564 7.27333 11.103C7.30882 11.1495 7.36134 11.1801 7.41936 11.1879C7.48608 11.1967 7.55389 11.2076 7.6217 11.2186C8.04499 11.2853 8.52405 11.3607 9.09936 11.1365C9.16608 11.1103 9.29952 11.0545 9.4767 10.9779C9.50952 10.9648 9.54124 10.9517 9.57186 10.9375L9.85405 10.8171C10.5661 10.5109 11.5417 10.0909 11.8622 9.9859C12.3708 9.81855 12.7273 9.76715 12.9319 10.0056C13.0642 10.1609 13.0456 10.2571 13.039 10.2889ZM7.89842 4.31152V4.60137C7.82258 4.61864 7.74912 4.64508 7.67967 4.68012C7.56824 4.73623 7.47411 4.82149 7.40727 4.92684C7.34044 5.03219 7.30342 5.15368 7.30014 5.2784C7.28483 5.75855 7.71686 5.91934 8.03186 6.03637C8.39936 6.17309 8.51092 6.24309 8.49452 6.41809C8.4912 6.47764 8.47031 6.53487 8.43449 6.58256C8.39867 6.63025 8.34953 6.66627 8.29327 6.68605C8.18799 6.72623 8.07501 6.74217 7.96273 6.7327C7.85045 6.72324 7.74174 6.6886 7.64467 6.63137C7.62205 6.61356 7.59614 6.60038 7.56843 6.59258C7.54071 6.58478 7.51173 6.58252 7.48314 6.58592C7.45455 6.58932 7.42691 6.59832 7.4018 6.61241C7.37668 6.62649 7.35459 6.64539 7.33678 6.66801C7.31897 6.69063 7.30579 6.71654 7.29799 6.74425C7.2902 6.77197 7.28793 6.80095 7.29134 6.82954C7.29474 6.85813 7.30374 6.88577 7.31782 6.91088C7.33191 6.936 7.3508 6.95809 7.37342 6.9759C7.52747 7.08647 7.70925 7.15199 7.89842 7.16512V7.42652C7.89842 7.48454 7.92147 7.54018 7.96249 7.5812C8.00352 7.62223 8.05916 7.64527 8.11717 7.64527C8.17519 7.64527 8.23083 7.62223 8.27185 7.5812C8.31288 7.54018 8.33592 7.48454 8.33592 7.42652V7.1323C8.38168 7.12069 8.42662 7.10608 8.47045 7.08855C8.5989 7.03785 8.71054 6.95214 8.79271 6.84116C8.87488 6.73019 8.92428 6.59839 8.9353 6.46074C8.9878 5.92262 8.50764 5.74434 8.19045 5.62621C7.8503 5.50043 7.73764 5.4348 7.74202 5.29262C7.74315 5.24474 7.75769 5.19814 7.78398 5.15812C7.81028 5.1181 7.84727 5.08625 7.89077 5.06621C7.99166 5.02244 8.10185 5.00443 8.21144 5.01378C8.32102 5.02314 8.42656 5.05957 8.51858 5.1198C8.54293 5.13603 8.57028 5.14721 8.59903 5.15268C8.62778 5.15815 8.65733 5.15779 8.68593 5.15164C8.71454 5.14548 8.74162 5.13364 8.76557 5.11683C8.78952 5.10002 8.80986 5.07858 8.82537 5.05377C8.84089 5.02896 8.85127 5.00129 8.8559 4.9724C8.86053 4.9435 8.85931 4.91398 8.85233 4.88556C8.84534 4.85715 8.83273 4.83042 8.81523 4.80697C8.79773 4.78351 8.7757 4.76381 8.75045 4.74902C8.62378 4.66996 8.48302 4.61611 8.33592 4.59043V4.31152C8.33592 4.25351 8.31288 4.19787 8.27185 4.15684C8.23083 4.11582 8.17519 4.09277 8.11717 4.09277C8.05916 4.09277 8.00352 4.11582 7.96249 4.15684C7.92147 4.19787 7.89842 4.25351 7.89842 4.31152Z" fill="white"/>
<path d="M13.2665 9.7234C12.829 9.20605 12.1115 9.4434 11.7244 9.57027C11.4794 9.65121 10.892 9.8984 10.3134 10.1434C10.3483 9.95849 10.3246 9.7673 10.2456 9.59652C9.9328 8.8823 9.16061 9.01902 8.59623 9.11965C8.42209 9.15746 8.24494 9.17979 8.06686 9.18637C7.76518 9.18298 7.4674 9.11784 7.19186 8.99496C6.83402 8.84099 6.44707 8.76636 6.05764 8.77621C5.312 8.79001 4.57685 8.95445 3.89639 9.25965L3.77389 9.30996C2.7578 9.71465 2.3203 9.80652 2.3203 9.80652C2.27959 9.81464 2.24204 9.83417 2.21202 9.86284C2.182 9.8915 2.16076 9.92811 2.15077 9.9684C2.14311 10.0001 1.97139 10.734 2.45811 11.7654C2.87592 12.6404 3.36483 12.9762 3.70061 13.0976C3.73546 13.1101 3.7729 13.1135 3.80944 13.1076C3.84597 13.1017 3.88041 13.0866 3.90952 13.0637C3.90952 13.0637 4.18405 12.845 4.39405 12.7225C4.53295 12.6382 4.87092 12.5846 5.6978 12.8143C6.46283 13.0179 7.24919 13.1306 8.04061 13.1501C8.3488 13.1602 8.65648 13.118 8.95061 13.0254C9.81358 12.6973 11.9136 11.6036 12.7394 11.1551C13.1769 10.9167 13.4153 10.6596 13.47 10.3687C13.4878 10.2528 13.4787 10.1343 13.4434 10.0224C13.4081 9.91047 13.3476 9.80818 13.2665 9.7234ZM13.039 10.2889C13.0117 10.4365 12.8301 10.6082 12.5294 10.7723C11.8359 11.1518 9.65498 12.2948 8.79639 12.6175C8.19373 12.8428 6.6767 12.6328 5.81483 12.3987C5.47047 12.2906 5.11342 12.2281 4.7528 12.2128C4.54825 12.2029 4.34496 12.2498 4.16545 12.3484C4.0178 12.4381 3.84936 12.5606 3.74327 12.6393C3.41514 12.4753 3.10342 12.1034 2.85295 11.5762C2.6367 11.1495 2.53565 10.6737 2.55983 10.1959C3.0274 10.0594 3.4871 9.89727 3.93686 9.71027L4.06264 9.65887C4.69293 9.37413 5.37486 9.22151 6.06639 9.21043C6.40052 9.20176 6.73237 9.26791 7.03764 9.40402C7.35985 9.54531 7.70739 9.61973 8.0592 9.62277C8.26549 9.61639 8.47081 9.59187 8.6728 9.54949C9.27545 9.44012 9.68233 9.39965 9.8442 9.76824C9.87183 9.82495 9.88754 9.88673 9.89036 9.94975C9.89319 10.0128 9.88306 10.0757 9.86061 10.1346C9.79936 10.2856 9.64186 10.4234 9.39467 10.535C9.17592 10.6268 9.01186 10.6979 8.93967 10.7264C8.47592 10.9079 8.0767 10.8445 7.69061 10.7832L7.47842 10.7504C7.42041 10.7426 7.36166 10.7581 7.31509 10.7936C7.26853 10.8291 7.23797 10.8816 7.23014 10.9396C7.22231 10.9977 7.23784 11.0564 7.27333 11.103C7.30882 11.1495 7.36134 11.1801 7.41936 11.1879C7.48608 11.1967 7.55389 11.2076 7.6217 11.2186C8.04499 11.2853 8.52405 11.3607 9.09936 11.1365C9.16608 11.1103 9.29952 11.0545 9.4767 10.9779C9.50952 10.9648 9.54124 10.9517 9.57186 10.9375L9.85405 10.8171C10.5661 10.5109 11.5417 10.0909 11.8622 9.9859C12.3708 9.81855 12.7273 9.76715 12.9319 10.0056C13.0642 10.1609 13.0456 10.2571 13.039 10.2889ZM7.89842 4.31152V4.60137C7.82258 4.61864 7.74912 4.64508 7.67967 4.68012C7.56824 4.73623 7.47411 4.82149 7.40727 4.92684C7.34044 5.03219 7.30342 5.15368 7.30014 5.2784C7.28483 5.75855 7.71686 5.91934 8.03186 6.03637C8.39936 6.17309 8.51092 6.24309 8.49452 6.41809C8.4912 6.47764 8.47031 6.53487 8.43449 6.58256C8.39867 6.63025 8.34953 6.66627 8.29327 6.68605C8.18799 6.72623 8.07501 6.74217 7.96273 6.7327C7.85045 6.72324 7.74174 6.6886 7.64467 6.63137C7.62205 6.61356 7.59614 6.60038 7.56843 6.59258C7.54071 6.58478 7.51173 6.58252 7.48314 6.58592C7.45455 6.58932 7.42691 6.59832 7.4018 6.61241C7.37668 6.62649 7.35459 6.64539 7.33678 6.66801C7.31897 6.69063 7.30579 6.71654 7.29799 6.74425C7.2902 6.77197 7.28793 6.80095 7.29134 6.82954C7.29474 6.85813 7.30374 6.88577 7.31782 6.91088C7.33191 6.936 7.3508 6.95809 7.37342 6.9759C7.52747 7.08647 7.70925 7.15199 7.89842 7.16512V7.42652C7.89842 7.48454 7.92147 7.54018 7.96249 7.5812C8.00352 7.62223 8.05916 7.64527 8.11717 7.64527C8.17519 7.64527 8.23083 7.62223 8.27185 7.5812C8.31288 7.54018 8.33592 7.48454 8.33592 7.42652V7.1323C8.38168 7.12069 8.42662 7.10608 8.47045 7.08855C8.5989 7.03785 8.71054 6.95214 8.79271 6.84116C8.87488 6.73019 8.92428 6.59839 8.9353 6.46074C8.9878 5.92262 8.50764 5.74434 8.19045 5.62621C7.8503 5.50043 7.73764 5.4348 7.74202 5.29262C7.74315 5.24474 7.75769 5.19814 7.78398 5.15812C7.81028 5.1181 7.84727 5.08625 7.89077 5.06621C7.99166 5.02244 8.10185 5.00443 8.21144 5.01378C8.32102 5.02314 8.42656 5.05957 8.51858 5.1198C8.54293 5.13603 8.57028 5.14721 8.59903 5.15268C8.62778 5.15815 8.65733 5.15779 8.68593 5.15164C8.71454 5.14548 8.74162 5.13364 8.76557 5.11683C8.78952 5.10002 8.80986 5.07858 8.82537 5.05377C8.84089 5.02896 8.85127 5.00129 8.8559 4.9724C8.86053 4.9435 8.85931 4.91398 8.85233 4.88556C8.84534 4.85715 8.83273 4.83042 8.81523 4.80697C8.79773 4.78351 8.7757 4.76381 8.75045 4.74902C8.62378 4.66996 8.48302 4.61611 8.33592 4.59043V4.31152C8.33592 4.25351 8.31288 4.19787 8.27185 4.15684C8.23083 4.11582 8.17519 4.09277 8.11717 4.09277C8.05916 4.09277 8.00352 4.11582 7.96249 4.15684C7.92147 4.19787 7.89842 4.25351 7.89842 4.31152Z" stroke="white" stroke-width="0.4" mask="url(#path-2-outside-1_239_4288)"/>
<path d="M5.39219 5.86914C5.39219 6.40809 5.55201 6.93495 5.85143 7.38307C6.15086 7.83119 6.57645 8.18046 7.07438 8.38671C7.5723 8.59296 8.12021 8.64692 8.64881 8.54178C9.17741 8.43664 9.66296 8.1771 10.0441 7.79601C10.4252 7.41491 10.6847 6.92936 10.7898 6.40076C10.895 5.87216 10.841 5.32426 10.6348 4.82633C10.4285 4.3284 10.0792 3.90281 9.63112 3.60339C9.18299 3.30396 8.65614 3.14414 8.11719 3.14414C7.39447 3.14414 6.70136 3.43124 6.19032 3.94227C5.67928 4.45331 5.39219 5.14643 5.39219 5.86914ZM10.2047 5.86914C10.2047 6.28201 10.0823 6.68561 9.85288 7.02889C9.6235 7.37218 9.29748 7.63974 8.91604 7.79774C8.5346 7.95574 8.11487 7.99708 7.70994 7.91653C7.305 7.83598 6.93304 7.63717 6.6411 7.34523C6.34916 7.05328 6.15034 6.68133 6.0698 6.27639C5.98925 5.87146 6.03059 5.45173 6.18859 5.07029C6.34659 4.68885 6.61415 4.36283 6.95743 4.13345C7.30072 3.90407 7.70432 3.78164 8.11719 3.78164C8.67083 3.78164 9.20179 4.00157 9.59327 4.39306C9.98475 4.78454 10.2047 5.3155 10.2047 5.86914Z" fill="white" stroke="white" stroke-width="0.2"/>
</svg>