<svg width="15" height="15" viewBox="0 0 15 15" fill="none" xmlns="http://www.w3.org/2000/svg">
<g clip-path="url(#clip0_239_4255)">
<path d="M2.21077 6.91406C2.32681 6.91406 2.43809 6.86797 2.52013 6.78592C2.60218 6.70387 2.64827 6.59259 2.64827 6.47656V6.03906C2.64827 5.69097 2.78656 5.35713 3.0327 5.11098C3.27884 4.86484 3.61268 4.72656 3.96077 4.72656H4.83577C5.18387 4.72656 5.51771 4.86484 5.76385 5.11098C6.00999 5.35713 6.14827 5.69097 6.14827 6.03906V6.47656C6.14827 6.59259 6.19437 6.70387 6.27642 6.78592C6.35846 6.86797 6.46974 6.91406 6.58577 6.91406C6.70181 6.91406 6.81309 6.86797 6.89513 6.78592C6.97718 6.70387 7.02327 6.59259 7.02327 6.47656V6.03906C7.02219 5.62337 6.90269 5.2166 6.67877 4.86637C6.45484 4.51615 6.13576 4.23698 5.7589 4.06156C6.00968 3.75548 6.1472 3.37226 6.14827 2.97656C6.14827 2.51243 5.9639 2.06731 5.63571 1.73913C5.30752 1.41094 4.8624 1.22656 4.39827 1.22656C3.93415 1.22656 3.48903 1.41094 3.16084 1.73913C2.83265 2.06731 2.64827 2.51243 2.64827 2.97656C2.64935 3.37226 2.78687 3.75548 3.03765 4.06156C2.66079 4.23698 2.34171 4.51615 2.11778 4.86637C1.89385 5.2166 1.77435 5.62337 1.77327 6.03906V6.47656C1.77327 6.59259 1.81937 6.70387 1.90142 6.78592C1.98346 6.86797 2.09474 6.91406 2.21077 6.91406ZM4.39827 2.10156C4.57133 2.10156 4.74051 2.15288 4.8844 2.24903C5.02829 2.34517 5.14044 2.48183 5.20667 2.64171C5.2729 2.8016 5.29022 2.97753 5.25646 3.14727C5.2227 3.317 5.13936 3.47291 5.01699 3.59528C4.89462 3.71765 4.73871 3.80099 4.56898 3.83475C4.39925 3.86851 4.22331 3.85118 4.06343 3.78496C3.90354 3.71873 3.76688 3.60658 3.67074 3.46269C3.57459 3.31879 3.52327 3.14962 3.52327 2.97656C3.52327 2.7445 3.61546 2.52194 3.77956 2.35784C3.94365 2.19375 4.16621 2.10156 4.39827 2.10156ZM12.7589 10.6241C13.0097 10.318 13.1472 9.93476 13.1483 9.53906C13.1483 9.07493 12.9639 8.62981 12.6357 8.30163C12.3075 7.97344 11.8624 7.78906 11.3983 7.78906C10.9341 7.78906 10.489 7.97344 10.1608 8.30163C9.83265 8.62981 9.64827 9.07493 9.64827 9.53906C9.64935 9.93476 9.78687 10.318 10.0376 10.6241C9.66079 10.7995 9.34171 11.0787 9.11778 11.4289C8.89385 11.7791 8.77435 12.1859 8.77327 12.6016V13.0391C8.77327 13.1551 8.81937 13.2664 8.90141 13.3484C8.98346 13.4305 9.09474 13.4766 9.21077 13.4766C9.32681 13.4766 9.43809 13.4305 9.52013 13.3484C9.60218 13.2664 9.64827 13.1551 9.64827 13.0391V12.6016C9.64827 12.2535 9.78655 11.9196 10.0327 11.6735C10.2788 11.4273 10.6127 11.2891 10.9608 11.2891H11.8358C12.1839 11.2891 12.5177 11.4273 12.7639 11.6735C13.01 11.9196 13.1483 12.2535 13.1483 12.6016V13.0391C13.1483 13.1551 13.1944 13.2664 13.2764 13.3484C13.3585 13.4305 13.4697 13.4766 13.5858 13.4766C13.7018 13.4766 13.8131 13.4305 13.8951 13.3484C13.9772 13.2664 14.0233 13.1551 14.0233 13.0391V12.6016C14.0222 12.1859 13.9027 11.7791 13.6788 11.4289C13.4548 11.0787 13.1358 10.7995 12.7589 10.6241ZM11.3983 8.66406C11.5713 8.66406 11.7405 8.71538 11.8844 8.81153C12.0283 8.90767 12.1404 9.04433 12.2067 9.20421C12.2729 9.3641 12.2902 9.54003 12.2565 9.70977C12.2227 9.8795 12.1394 10.0354 12.017 10.1578C11.8946 10.2802 11.7387 10.3635 11.569 10.3972C11.3992 10.431 11.2233 10.4137 11.0634 10.3475C10.9035 10.2812 10.7669 10.1691 10.6707 10.0252C10.5746 9.88129 10.5233 9.71212 10.5233 9.53906C10.5233 9.307 10.6155 9.08444 10.7796 8.92034C10.9437 8.75625 11.1662 8.66406 11.3983 8.66406ZM7.46077 2.97656H9.64827C10.3445 2.97656 11.0121 3.25312 11.5044 3.74541C11.9967 4.23769 12.2733 4.90537 12.2733 5.60156V5.85969L12.1464 5.72844C12.064 5.64605 11.9523 5.59977 11.8358 5.59977C11.7193 5.59977 11.6075 5.64605 11.5251 5.72844C11.4428 5.81082 11.3965 5.92256 11.3965 6.03906C11.3965 6.15557 11.4428 6.2673 11.5251 6.34969L12.4001 7.22469C12.4408 7.26569 12.4892 7.29824 12.5425 7.32045C12.5958 7.34266 12.653 7.3541 12.7108 7.3541C12.7685 7.3541 12.8257 7.34266 12.879 7.32045C12.9323 7.29824 12.9807 7.26569 13.0214 7.22469L13.8964 6.34969C13.9788 6.2673 14.0251 6.15557 14.0251 6.03906C14.0251 5.92256 13.9788 5.81082 13.8964 5.72844C13.814 5.64605 13.7023 5.59977 13.5858 5.59977C13.4693 5.59977 13.3575 5.64605 13.2751 5.72844L13.1483 5.85969V5.60156C13.1483 4.6733 12.7795 3.78307 12.1231 3.12669C11.4668 2.47031 10.5765 2.10156 9.64827 2.10156H7.46077C7.34474 2.10156 7.23346 2.14766 7.15142 2.2297C7.06937 2.31175 7.02327 2.42303 7.02327 2.53906C7.02327 2.65509 7.06937 2.76637 7.15142 2.84842C7.23346 2.93047 7.34474 2.97656 7.46077 2.97656ZM7.48702 11.7266H6.14827C5.45208 11.7266 4.7844 11.45 4.29212 10.9577C3.79984 10.4654 3.52327 9.79776 3.52327 9.10156V8.84344L3.65015 8.97469C3.69082 9.01569 3.73921 9.04824 3.79252 9.07045C3.84584 9.09266 3.90302 9.1041 3.96077 9.1041C4.01853 9.1041 4.07571 9.09266 4.12903 9.07045C4.18234 9.04824 4.23073 9.01569 4.2714 8.97469C4.31241 8.93402 4.34495 8.88563 4.36716 8.83231C4.38938 8.779 4.40081 8.72182 4.40081 8.66406C4.40081 8.60631 4.38938 8.54912 4.36716 8.49581C4.34495 8.4425 4.31241 8.39411 4.2714 8.35344L3.3964 7.47844C3.35573 7.43743 3.30734 7.40488 3.25403 7.38267C3.20071 7.36046 3.14353 7.34903 3.08577 7.34903C3.02802 7.34903 2.97084 7.36046 2.91752 7.38267C2.86421 7.40488 2.81582 7.43743 2.77515 7.47844L1.90015 8.35344C1.81777 8.43582 1.77148 8.54756 1.77148 8.66406C1.77148 8.78057 1.81777 8.8923 1.90015 8.97469C1.98253 9.05707 2.09427 9.10335 2.21077 9.10335C2.32728 9.10335 2.43902 9.05707 2.5214 8.97469L2.64827 8.84344V9.10156C2.64827 10.0298 3.01702 10.9201 3.6734 11.5764C4.32978 12.2328 5.22002 12.6016 6.14827 12.6016H7.48702C7.60306 12.6016 7.71434 12.5555 7.79638 12.4734C7.87843 12.3914 7.92452 12.2801 7.92452 12.1641C7.92452 12.048 7.87843 11.9368 7.79638 11.8547C7.71434 11.7727 7.60306 11.7266 7.48702 11.7266Z" fill="white"/>
</g>
<defs>
<clipPath id="clip0_239_4255">
<rect width="14" height="14" fill="white" transform="translate(0.898438 0.351562)"/>
</clipPath>
</defs>
</svg>