<svg width="56" height="56" viewBox="0 0 56 56" fill="none" xmlns="http://www.w3.org/2000/svg">
<path d="M28.0032 55.0358C42.9332 55.0358 55.0377 42.9313 55.0377 28.0013C55.0377 13.0713 42.9332 0.966797 28.0032 0.966797C13.0732 0.966797 0.96875 13.0713 0.96875 28.0013C0.96875 42.9313 13.0732 55.0358 28.0032 55.0358Z" stroke="white" stroke-width="1.68966" stroke-miterlimit="10"/>
<path d="M13.6406 39.585C15.4001 31.9624 21.0454 26.959 27.7453 26.959C34.4452 26.959 40.0905 31.9624 41.85 39.585" stroke="white" stroke-width="1.68966" stroke-miterlimit="10" stroke-linecap="round"/>
<path d="M27.7534 26.9579C32.0139 26.9579 35.4677 23.5041 35.4677 19.2436C35.4677 14.9831 32.0139 11.5293 27.7534 11.5293C23.4929 11.5293 20.0391 14.9831 20.0391 19.2436C20.0391 23.5041 23.4929 26.9579 27.7534 26.9579Z" stroke="white" stroke-width="1.68966" stroke-miterlimit="10"/>
<path d="M27.8427 35.229C29.3213 34.759 30.5306 33.6128 31.0063 32.0653C31.0751 31.7959 31.4075 31.7959 31.4763 32.0653C31.9463 33.544 33.0925 34.7533 34.64 35.229C34.9093 35.2977 34.9093 35.6302 34.64 35.6989C33.1613 36.1689 31.952 37.3152 31.4763 38.8626C31.4075 39.132 31.0751 39.132 31.0063 38.8626C30.5364 37.3839 29.3901 36.1746 27.8427 35.6989C27.5733 35.6302 27.5733 35.229 27.8427 35.229Z" fill="white"/>
</svg>
