<svg width="56" height="56" viewBox="0 0 56 56" fill="none" xmlns="http://www.w3.org/2000/svg">
<path d="M21.6328 23.5505C22.7029 22.0299 24.2799 20.9034 26.1949 20.4528C30.3627 19.4954 34.5305 22.0298 35.488 26.1977C35.9949 28.4505 35.488 30.6471 34.3052 32.3931" stroke="white" stroke-width="1.93103" stroke-miterlimit="10"/>
<path d="M21.8008 1.69769L26.1376 20.2839" stroke="white" stroke-width="1.93103" stroke-miterlimit="10"/>
<path d="M35.4883 26.1977L54.2997 21.7483" stroke="white" stroke-width="1.93103" stroke-miterlimit="10"/>
<path d="M32.0547 21.354L42.1363 5.02063" stroke="white" stroke-width="1.93103" stroke-miterlimit="10"/>
<path d="M27.9993 55.0345C42.93 55.0345 55.0338 42.9307 55.0338 28C55.0338 13.0693 42.93 0.965515 27.9993 0.965515C13.0686 0.965515 0.964844 13.0693 0.964844 28C0.964844 42.9307 13.0686 55.0345 27.9993 55.0345Z" stroke="white" stroke-width="1.93103" stroke-miterlimit="10"/>
<path d="M14.6516 42.3057L9.69531 37.4057L13.9194 32.5057" stroke="white" stroke-width="1.93103" stroke-miterlimit="10"/>
<path d="M24.3359 32.5057L29.2923 37.4057L24.3359 42.3057" stroke="white" stroke-width="1.93103" stroke-miterlimit="10"/>
<path d="M21.1296 30.7034L18.1445 45.0092" stroke="white" stroke-width="1.93103" stroke-miterlimit="10"/>
<path d="M2.42969 19.2702C21.8044 13.4127 33.5757 42.3058 53.5136 36.2793" stroke="white" stroke-width="1.93103" stroke-miterlimit="10"/>
</svg>
